<svg width="329" height="239" viewBox="0 0 329 239" fill="none" xmlns="http://www.w3.org/2000/svg">
<path d="M164.5 238.766C255.351 238.766 329 234.466 329 229.162C329 223.858 255.351 219.558 164.5 219.558C73.6492 219.558 0 223.858 0 229.162C0 234.466 73.6492 238.766 164.5 238.766Z" fill="white"/>
<path d="M219.282 129.15H146.887C145.514 129.15 144.401 130.263 144.401 131.636V134.487C144.401 135.86 145.514 136.973 146.887 136.973H219.282C220.655 136.973 221.768 135.86 221.768 134.487V131.636C221.768 130.263 220.655 129.15 219.282 129.15Z" fill="#263238"/>
<path d="M218.595 224.071H221.768L218.12 136.973H213.725L218.595 224.071Z" fill="#8435A5"/>
<path opacity="0.6" d="M218.595 224.071H221.768L218.12 136.973H213.725L218.595 224.071Z" fill="white"/>
<path d="M189.384 224.071H186.203L189.859 136.973H194.254L189.384 224.071Z" fill="#8435A5"/>
<path opacity="0.6" d="M189.384 224.071H186.203L189.859 136.973H194.254L189.384 224.071Z" fill="white"/>
<path d="M176.794 224.071H179.967L176.31 136.973H171.924L176.794 224.071Z" fill="#8435A5"/>
<path opacity="0.6" d="M176.794 224.071H179.967L176.31 136.973H171.924L176.794 224.071Z" fill="white"/>
<path d="M147.574 224.071H144.401L148.058 136.973H152.444L147.574 224.071Z" fill="#8435A5"/>
<path opacity="0.6" d="M147.574 224.071H144.401L148.058 136.973H152.444L147.574 224.071Z" fill="white"/>
<g opacity="0.3">
<path opacity="0.3" d="M218.12 136.964H213.725L213.929 140.672H218.273L218.12 136.964Z" fill="#8435A5"/>
<path opacity="0.3" d="M189.707 140.672H194.042L194.254 136.964H189.859L189.707 140.672Z" fill="#8435A5"/>
<path opacity="0.3" d="M171.924 136.964L172.127 140.672H176.463L176.31 136.964H171.924Z" fill="#8435A5"/>
<path opacity="0.3" d="M147.896 140.672H152.24L152.452 136.964H148.049L147.896 140.672Z" fill="#8435A5"/>
</g>
<path d="M192.65 22.5803C193.325 22.5803 193.872 21.9194 193.872 21.1041C193.872 20.2887 193.325 19.6278 192.65 19.6278C191.976 19.6278 191.429 20.2887 191.429 21.1041C191.429 21.9194 191.976 22.5803 192.65 22.5803Z" fill="white"/>
<path d="M193.66 25.0068L192.956 24.9813L192.523 21.5792L193.864 21.2822L193.66 25.0068Z" fill="white"/>
<path d="M198.53 89.1387C195.985 89.1387 193.728 88.7569 192.362 87.5182C191.853 87.0275 191.456 86.4319 191.199 85.7727C190.943 85.1134 190.833 84.4063 190.877 83.7003C190.949 80.2025 191.489 76.73 192.481 73.3751C193.66 68.7512 194.593 65.103 191.76 60.5979C187.246 53.4457 188.595 43.4429 191.76 37.173C194.178 32.3795 193.355 27.0684 193.041 25.0661C193.041 24.8031 192.973 24.6079 192.956 24.4722C192.951 24.4073 192.971 24.343 193.012 24.2926C193.053 24.2421 193.112 24.2092 193.176 24.2007C193.241 24.1978 193.304 24.2187 193.354 24.2593C193.404 24.3 193.438 24.3576 193.448 24.4213C193.448 24.5486 193.49 24.7437 193.524 24.9897C193.847 27.0344 194.678 32.4558 192.192 37.3936C189.096 43.5447 187.772 53.3439 192.192 60.3434C195.136 65.0182 194.135 68.9463 192.964 73.4939C191.994 76.8037 191.464 80.2267 191.386 83.6749C191.34 84.3128 191.434 84.9531 191.661 85.5509C191.889 86.1488 192.243 86.6899 192.701 87.1364C194.984 89.1981 200.049 88.6721 204.936 88.163C207.124 87.9424 209.381 87.7049 211.384 87.7049C211.449 87.7049 211.511 87.7308 211.558 87.777C211.604 87.8231 211.63 87.8857 211.63 87.9509C211.63 88.0162 211.604 88.0788 211.558 88.1249C211.511 88.171 211.449 88.197 211.384 88.197C209.245 88.2425 207.11 88.3954 204.986 88.6551C202.844 88.9248 200.689 89.0862 198.53 89.1387Z" fill="white"/>
<path d="M221.531 87.3231H211.876C211.595 87.3231 211.367 87.551 211.367 87.8322V88.5109C211.367 88.792 211.595 89.02 211.876 89.02H221.531C221.812 89.02 222.04 88.792 222.04 88.5109V87.8322C222.04 87.551 221.812 87.3231 221.531 87.3231Z" fill="white"/>
<path d="M282.125 94.6705H46.8753C46.1267 94.6683 45.4094 94.3699 44.88 93.8405C44.3507 93.3112 44.0523 92.5939 44.05 91.8453C44.0523 91.0966 44.3507 90.3793 44.88 89.85C45.4094 89.3206 46.1267 89.0223 46.8753 89.02H282.125C282.874 89.0223 283.591 89.3206 284.12 89.85C284.65 90.3793 284.948 91.0966 284.95 91.8453C284.948 92.5939 284.65 93.3112 284.12 93.8405C283.591 94.3699 282.874 94.6683 282.125 94.6705Z" fill="#8435A5"/>
<path opacity="0.3" d="M282.125 94.6705H227.054C226.305 94.6683 225.588 94.3699 225.059 93.8405C224.529 93.3112 224.231 92.5939 224.229 91.8453C224.231 91.0966 224.529 90.3793 225.059 89.85C225.588 89.3206 226.305 89.0223 227.054 89.02H282.125C282.873 89.0223 283.591 89.3206 284.12 89.85C284.649 90.3793 284.948 91.0966 284.95 91.8453C284.948 92.5939 284.649 93.3112 284.12 93.8405C283.591 94.3699 282.873 94.6683 282.125 94.6705Z" fill="#263238"/>
<path d="M279.529 227.787H284.95L278.714 94.6704H271.214L279.529 227.787Z" fill="#263238"/>
<path opacity="0.1" d="M279.529 227.787H284.95L278.714 94.6704H271.214L279.529 227.787Z" fill="white"/>
<path d="M229.642 227.787H224.229L230.465 94.6704H237.965L229.642 227.787Z" fill="#263238"/>
<path opacity="0.2" d="M229.642 227.787H224.229L230.465 94.6704H237.965L229.642 227.787Z" fill="white"/>
<path d="M99.3499 227.787H104.771L98.5354 94.6704H91.0354L99.3499 227.787Z" fill="#263238"/>
<path opacity="0.1" d="M99.3499 227.787H104.771L98.5354 94.6704H91.0354L99.3499 227.787Z" fill="white"/>
<path d="M49.4715 227.787H44.05L50.2859 94.6704H57.786L49.4715 227.787Z" fill="#263238"/>
<path opacity="0.2" d="M49.4715 227.787H44.05L50.2859 94.6704H57.786L49.4715 227.787Z" fill="white"/>
<path d="M232.789 101.755H51.8638V112.911H232.789V101.755Z" fill="#263238"/>
<path opacity="0.2" d="M232.789 101.755H51.8638V112.911H232.789V101.755Z" fill="white"/>
<path d="M81.6348 81.5115C81.3198 81.5115 81.0177 81.6366 80.7949 81.8594C80.5722 82.0821 80.447 82.3842 80.447 82.6993V87.7898C80.447 88.1048 80.5722 88.4069 80.7949 88.6297C81.0177 88.8524 81.3198 88.9776 81.6348 88.9776H120.111C120.213 88.9776 120.311 88.9376 120.384 88.8663C120.457 88.7949 120.499 88.6978 120.501 88.5958V81.9017C120.499 81.7989 120.457 81.7009 120.384 81.6282C120.311 81.5555 120.213 81.5136 120.111 81.5115H81.6348Z" fill="#8435A5"/>
<path opacity="0.9" d="M104.406 82.2327H120.526V88.3074H104.406C104.224 88.3074 104.049 88.2349 103.921 88.1061C103.792 87.9772 103.719 87.8024 103.719 87.6201V82.9114C103.721 82.7306 103.795 82.558 103.923 82.4309C104.052 82.3039 104.226 82.2327 104.406 82.2327Z" fill="white"/>
<path d="M101.759 81.5115H62.8933C62.2374 81.5115 61.7056 82.0433 61.7056 82.6993V87.8322C61.7056 88.4882 62.2374 89.02 62.8933 89.02H101.759C102.415 89.02 102.947 88.4882 102.947 87.8322V82.6993C102.947 82.0433 102.415 81.5115 101.759 81.5115Z" fill="#8435A5"/>
<path opacity="0.2" d="M101.759 81.5115H62.8933C62.2374 81.5115 61.7056 82.0433 61.7056 82.6993V87.8322C61.7056 88.4882 62.2374 89.02 62.8933 89.02H101.759C102.415 89.02 102.947 88.4882 102.947 87.8322V82.6993C102.947 82.0433 102.415 81.5115 101.759 81.5115Z" fill="black"/>
<path opacity="0.5" d="M82.6445 81.5115H76.748C76.4809 81.5115 76.2644 81.728 76.2644 81.9951V88.5364C76.2644 88.8035 76.4809 89.02 76.748 89.02H82.6445C82.9116 89.02 83.1281 88.8035 83.1281 88.5364V81.9951C83.1281 81.728 82.9116 81.5115 82.6445 81.5115Z" fill="#8435A5"/>
<path opacity="0.5" d="M91.1541 81.5115H85.2661C84.999 81.5115 84.7825 81.728 84.7825 81.9951V88.5364C84.7825 88.8035 84.999 89.02 85.2661 89.02H91.1541C91.4212 89.02 91.6377 88.8035 91.6377 88.5364V81.9951C91.6377 81.728 91.4212 81.5115 91.1541 81.5115Z" fill="#8435A5"/>
<path d="M74.6609 72.2722C74.3459 72.2722 74.0438 72.3974 73.821 72.6201C73.5983 72.8429 73.4731 73.145 73.4731 73.46V80.3322C73.4731 80.4878 73.5039 80.6418 73.5637 80.7855C73.6235 80.9291 73.7111 81.0595 73.8215 81.1691C73.932 81.2787 74.063 81.3654 74.207 81.4242C74.3511 81.4829 74.5054 81.5126 74.6609 81.5115H116.344C116.445 81.5115 116.542 81.4713 116.614 81.3997C116.685 81.3281 116.726 81.231 116.726 81.1297V72.6455C116.726 72.5435 116.686 72.4455 116.614 72.3725C116.543 72.2996 116.446 72.2575 116.344 72.2552L74.6609 72.2722Z" fill="#8435A5"/>
<path opacity="0.9" d="M97.4494 72.9679H116.742V80.7818H97.4494C97.2671 80.7818 97.0923 80.7094 96.9635 80.5806C96.8346 80.4517 96.7622 80.2769 96.7622 80.0946V73.6721C96.7599 73.5804 96.776 73.4892 96.8095 73.4039C96.843 73.3185 96.8933 73.2408 96.9574 73.1751C97.0214 73.1095 97.0979 73.0574 97.1824 73.0218C97.2669 72.9862 97.3577 72.9679 97.4494 72.9679Z" fill="white"/>
<path d="M94.7939 72.2722H62.1128C61.4568 72.2722 60.925 72.804 60.925 73.46V80.3237C60.925 80.9797 61.4568 81.5115 62.1128 81.5115H94.7939C95.4499 81.5115 95.9817 80.9797 95.9817 80.3237V73.46C95.9817 72.804 95.4499 72.2722 94.7939 72.2722Z" fill="#8435A5"/>
<path opacity="0.2" d="M94.7939 72.2722H62.1128C61.4568 72.2722 60.925 72.804 60.925 73.46V80.3237C60.925 80.9797 61.4568 81.5115 62.1128 81.5115H94.7939C95.4499 81.5115 95.9817 80.9797 95.9817 80.3237V73.46C95.9817 72.804 95.4499 72.2722 94.7939 72.2722Z" fill="white"/>
<path opacity="0.6" d="M91.7312 74.1047H67.7973C67.399 74.1047 67.0762 74.4276 67.0762 74.8259V78.9577C67.0762 79.356 67.399 79.6789 67.7973 79.6789H91.7312C92.1295 79.6789 92.4524 79.356 92.4524 78.9577V74.8259C92.4524 74.4276 92.1295 74.1047 91.7312 74.1047Z" fill="#8435A5"/>
<path d="M86.9036 67.8774C86.2503 67.8774 85.7158 68.1828 85.7158 68.5731V71.6019C85.7158 71.9837 86.2503 72.2976 86.9036 72.2976H125.379C125.6 72.2976 125.77 72.1958 125.77 72.0686V68.0725C125.77 67.9537 125.6 67.8519 125.379 67.8519L86.9036 67.8774Z" fill="#8435A5"/>
<path opacity="0.9" d="M109.514 68.2677H125.761V71.848H109.522C109.383 71.848 109.249 71.7926 109.15 71.694C109.052 71.5953 108.996 71.4615 108.996 71.322V68.7768C109.001 68.6417 109.057 68.5134 109.153 68.4186C109.25 68.3239 109.379 68.2698 109.514 68.2677Z" fill="white"/>
<path d="M107.308 67.8519H67.8819C67.3806 67.8519 66.9741 68.2584 66.9741 68.7597V71.3729C66.9741 71.8742 67.3806 72.2807 67.8819 72.2807H107.308C107.809 72.2807 108.216 71.8742 108.216 71.3729V68.7597C108.216 68.2584 107.809 67.8519 107.308 67.8519Z" fill="#8435A5"/>
<path opacity="0.2" d="M107.308 67.8519H67.8819C67.3806 67.8519 66.9741 68.2584 66.9741 68.7597V71.3729C66.9741 71.8742 67.3806 72.2807 67.8819 72.2807H107.308C107.809 72.2807 108.216 71.8742 108.216 71.3729V68.7597C108.216 68.2584 107.809 67.8519 107.308 67.8519Z" fill="black"/>
<path opacity="0.5" d="M72.8368 67.8519H71.6066C71.5082 67.8519 71.4285 67.9317 71.4285 68.0301V72.1025C71.4285 72.2009 71.5082 72.2807 71.6066 72.2807H72.8368C72.9352 72.2807 73.015 72.2009 73.015 72.1025V68.0301C73.015 67.9317 72.9352 67.8519 72.8368 67.8519Z" fill="#8435A5"/>
<path opacity="0.5" d="M104.839 67.8519H103.634C103.536 67.8519 103.456 67.9317 103.456 68.0301V72.1025C103.456 72.2009 103.536 72.2807 103.634 72.2807H104.839C104.938 72.2807 105.017 72.2009 105.017 72.1025V68.0301C105.017 67.9317 104.938 67.8519 104.839 67.8519Z" fill="#8435A5"/>
<path d="M79.9466 61.4548C79.2933 61.4548 78.7588 61.7687 78.7588 62.1505V67.1477C78.7588 67.538 79.2933 67.8519 79.9466 67.8519H121.629C121.842 67.8519 122.011 67.7501 122.011 67.6228V61.6839C122.011 61.5651 121.842 61.4633 121.629 61.4633L79.9466 61.4548Z" fill="#8435A5"/>
<path opacity="0.9" d="M102.557 61.8706H122.011V67.4278H102.557C102.488 67.4278 102.42 67.4141 102.356 67.3877C102.292 67.3613 102.234 67.3225 102.185 67.2737C102.136 67.2248 102.097 67.1669 102.071 67.103C102.045 67.0392 102.031 66.9708 102.031 66.9017V62.3966C102.031 62.3275 102.045 62.2591 102.071 62.1953C102.097 62.1315 102.136 62.0735 102.185 62.0247C102.234 61.9758 102.292 61.9371 102.356 61.9106C102.42 61.8842 102.488 61.8706 102.557 61.8706Z" fill="white"/>
<path d="M100.342 61.4548H67.1014C66.6 61.4548 66.1936 61.8613 66.1936 62.3626V66.9441C66.1936 67.4455 66.6 67.8519 67.1014 67.8519H100.342C100.844 67.8519 101.25 67.4455 101.25 66.9441V62.3626C101.25 61.8613 100.844 61.4548 100.342 61.4548Z" fill="#8435A5"/>
<path opacity="0.1" d="M100.342 61.4548H67.1014C66.6 61.4548 66.1936 61.8613 66.1936 62.3626V66.9441C66.1936 67.4455 66.6 67.8519 67.1014 67.8519H100.342C100.844 67.8519 101.25 67.4455 101.25 66.9441V62.3626C101.25 61.8613 100.844 61.4548 100.342 61.4548Z" fill="black"/>
<path d="M172.916 87.6116H137.894C137.707 87.6116 137.528 87.6858 137.396 87.8178C137.264 87.9499 137.189 88.129 137.189 88.3158C137.189 88.5025 137.264 88.6816 137.396 88.8137C137.528 88.9458 137.707 89.0199 137.894 89.0199H172.916C173.103 89.0199 173.282 88.9458 173.414 88.8137C173.546 88.6816 173.621 88.5025 173.621 88.3158C173.621 88.129 173.546 87.9499 173.414 87.8178C173.282 87.6858 173.103 87.6116 172.916 87.6116Z" fill="white"/>
<path d="M241.418 85.9318H264.427L266.505 88.9437H239.339L241.418 85.9318Z" fill="#263238"/>
<path d="M276.95 34.5261C276.943 35.137 276.756 35.7324 276.411 36.2372C276.067 36.7419 275.581 37.1336 275.015 37.3627C274.448 37.5919 273.827 37.6484 273.228 37.5251C272.63 37.4019 272.081 37.1043 271.651 36.6699C271.222 36.2355 270.93 35.6836 270.813 35.0839C270.697 34.4841 270.76 33.8632 270.995 33.2993C271.231 32.7355 271.628 32.2538 272.136 31.915C272.645 31.5762 273.242 31.3954 273.853 31.3954C274.262 31.3954 274.668 31.4766 275.046 31.6343C275.424 31.7921 275.767 32.0232 276.055 32.3144C276.343 32.6055 276.57 32.9509 276.724 33.3306C276.877 33.7102 276.954 34.1165 276.95 34.5261Z" fill="black"/>
<path d="M253.677 87.9679C253.549 87.9679 253.422 87.9419 253.304 87.8915C253.065 87.7904 252.876 87.599 252.778 87.3592C252.679 87.1193 252.679 86.8502 252.778 86.6104L274.947 34.1442C274.997 34.0261 275.07 33.919 275.162 33.8291C275.253 33.7392 275.362 33.6681 275.481 33.6201C275.6 33.572 275.727 33.5479 275.855 33.549C275.983 33.5501 276.11 33.5765 276.228 33.6266C276.346 33.6768 276.454 33.7497 276.543 33.8412C276.633 33.9327 276.704 34.041 276.752 34.16C276.801 34.279 276.825 34.4062 276.824 34.5345C276.822 34.6628 276.796 34.7896 276.746 34.9077L254.585 87.391C254.505 87.5642 254.377 87.7107 254.216 87.813C254.055 87.9154 253.868 87.9691 253.677 87.9679Z" fill="#263238"/>
<path d="M275.847 35.5017C275.637 35.5024 275.432 35.4371 275.261 35.3151L235.012 5.09437C234.805 4.93911 234.668 4.70797 234.632 4.4518C234.595 4.19564 234.662 3.93542 234.817 3.72841C234.972 3.5214 235.203 3.38454 235.46 3.34794C235.716 3.31135 235.976 3.37801 236.183 3.53328L276.44 33.7115C276.604 33.8344 276.725 34.0057 276.786 34.2012C276.847 34.3966 276.845 34.6064 276.781 34.8006C276.716 34.9949 276.592 35.1639 276.425 35.2836C276.259 35.4033 276.06 35.4678 275.855 35.4678L275.847 35.5017Z" fill="#263238"/>
<path d="M278.943 34.5261C278.937 35.137 278.749 35.7324 278.405 36.2372C278.061 36.7419 277.575 37.1336 277.008 37.3628C276.442 37.592 275.82 37.6485 275.222 37.5252C274.623 37.4019 274.075 37.1043 273.645 36.6699C273.215 36.2355 272.924 35.6837 272.807 35.0839C272.69 34.4841 272.754 33.8632 272.989 33.2994C273.224 32.7355 273.621 32.2538 274.13 31.915C274.638 31.5762 275.236 31.3954 275.847 31.3954C276.256 31.3942 276.662 31.4747 277.041 31.632C277.419 31.7894 277.763 32.0205 278.051 32.3118C278.339 32.6032 278.566 32.9491 278.72 33.3292C278.873 33.7094 278.949 34.1162 278.943 34.5261Z" fill="#263238"/>
<path d="M235.589 7.43601C237.295 7.43601 238.677 6.05336 238.677 4.34777C238.677 2.64218 237.295 1.25952 235.589 1.25952C233.883 1.25952 232.501 2.64218 232.501 4.34777C232.501 6.05336 233.883 7.43601 235.589 7.43601Z" fill="#263238"/>
<path d="M231.262 18.4655C230.294 19.4337 229.06 20.093 227.717 20.3602C226.374 20.6273 224.982 20.4902 223.717 19.9662C222.452 19.4422 221.371 18.5548 220.61 17.4163C219.85 16.2778 219.444 14.9393 219.444 13.5701C219.444 12.2008 219.85 10.8623 220.61 9.72381C221.371 8.58531 222.452 7.69796 223.717 7.17397C224.982 6.64997 226.374 6.51287 227.717 6.78C229.06 7.04713 230.294 7.70649 231.262 8.6747C232.558 9.97413 233.286 11.7346 233.286 13.5701C233.286 15.4055 232.558 17.166 231.262 18.4655Z" fill="#8435A5"/>
<path opacity="0.7" d="M231.262 18.4655C230.294 19.4337 229.06 20.093 227.717 20.3602C226.374 20.6273 224.982 20.4902 223.717 19.9662C222.452 19.4422 221.371 18.5548 220.61 17.4163C219.85 16.2778 219.444 14.9393 219.444 13.5701C219.444 12.2008 219.85 10.8623 220.61 9.72381C221.371 8.58531 222.452 7.69796 223.717 7.17397C224.982 6.64997 226.374 6.51287 227.717 6.78C229.06 7.04713 230.294 7.70649 231.262 8.6747C232.558 9.97413 233.286 11.7346 233.286 13.5701C233.286 15.4055 232.558 17.166 231.262 18.4655Z" fill="white"/>
<path d="M235.589 4.34777C234.212 2.96942 232.576 1.876 230.776 1.12999C228.976 0.383979 227.047 0 225.098 0C223.15 0 221.22 0.383979 219.42 1.12999C217.62 1.876 215.985 2.96942 214.608 4.34777L235.589 25.3292C236.967 23.9519 238.061 22.3165 238.807 20.5165C239.553 18.7164 239.937 16.787 239.937 14.8385C239.937 12.89 239.553 10.9605 238.807 9.16049C238.061 7.36044 236.967 5.72504 235.589 4.34777Z" fill="#263238"/>
<g opacity="0.2">
<path opacity="0.2" d="M214.608 4.34778L126.525 89.02H216.89L235.589 25.3207L214.608 4.34778Z" fill="#8435A5"/>
<path opacity="0.7" d="M214.608 4.34778L126.525 89.02H216.89L235.589 25.3207L214.608 4.34778Z" fill="white"/>
</g>
<path d="M209.89 81.9696C209.272 79.0386 208.309 76.1909 207.023 73.4854C205.054 69.3452 202.195 65.4764 197.987 63.4062C193.075 60.9967 187.416 60.861 182.139 61.9978C168.369 65.0437 160.334 71.7122 154.361 65.2982C154.361 65.2982 158.832 62.8632 159.554 60.3689C160.275 57.8745 160.996 55.3802 159.367 53.836C157.738 52.2919 156.143 51.1126 155.32 50.2472C154.497 49.3818 152.02 48.8473 152.02 48.8473L152.393 42.2721C152.393 42.2721 145.334 42.8745 144.757 49.4667L145.317 42.8745C145.317 42.8745 138.666 43.8162 137.944 52.8519C137.223 61.8875 139.141 66.7405 139.141 66.7405C139.141 66.7405 136.248 76.7179 146.2 83.7089C146.2 83.7089 140.422 83.2847 138.818 86.4153C137.215 89.546 138.818 89.8599 141.542 89.9448C145.606 90.072 144.392 90.1229 147.888 90.072C151.536 90.0211 155.524 89.2236 159.308 89.6902C163.092 90.1569 175.546 89.9957 184.302 93.9323C191.471 97.1563 203.213 93.7118 206.726 85.2021C206.344 86.1354 207.141 88.8079 207.15 89.9193C207.164 91.705 207.016 93.4883 206.709 95.2474C206.125 98.644 204.892 101.896 203.078 104.826C199.684 110.332 195.111 114.608 188.654 116.212C185.533 116.967 182.286 117.046 179.132 116.445C175.977 115.843 172.987 114.575 170.363 112.725C169.014 111.758 165.552 107.965 163.83 109.713C162.888 110.672 163.609 111.673 164.339 112.547C166.295 114.665 168.636 116.392 171.236 117.637C175.561 119.935 180.43 121.012 185.32 120.751C190.046 120.304 194.552 118.54 198.326 115.66C208.923 107.753 212.478 94.3226 209.89 81.9696Z" fill="#363636"/>
<path d="M156.542 56.7631C156.542 56.7631 155.074 54.2773 151.265 55.6347C151.265 55.6347 152.919 58.2055 156.542 56.7631Z" fill="#EDBA4A"/>
<path d="M158.264 27.0769H158.256C156.817 27.0769 155.651 28.243 155.651 29.6816V29.69C155.651 31.1285 156.817 32.2947 158.256 32.2947H158.264C159.703 32.2947 160.869 31.1285 160.869 29.69V29.6816C160.869 28.243 159.703 27.0769 158.264 27.0769Z" fill="#27385F"/>
<path d="M149.585 26.6697H149.576C148.649 26.6697 147.896 27.4218 147.896 28.3495V28.358C147.896 29.2858 148.649 30.0379 149.576 30.0379H149.585C150.513 30.0379 151.265 29.2858 151.265 28.358V28.3495C151.265 27.4218 150.513 26.6697 149.585 26.6697Z" fill="#27385F"/>
<path d="M160.86 38.4415C160.86 37.7222 160.277 37.1392 159.558 37.1392C158.839 37.1392 158.256 37.7222 158.256 38.4415C158.256 39.1607 158.839 39.7438 159.558 39.7438C160.277 39.7438 160.86 39.1607 160.86 38.4415Z" fill="#27385F"/>
<path d="M152.843 36.9695C152.843 36.1588 152.186 35.5017 151.375 35.5017C150.564 35.5017 149.907 36.1588 149.907 36.9695C149.907 37.7801 150.564 38.4372 151.375 38.4372C152.186 38.4372 152.843 37.7801 152.843 36.9695Z" fill="#27385F"/>
</svg>
