<svg xmlns="http://www.w3.org/2000/svg" width="312.184" height="312.784" viewBox="0 0 312.184 312.784">
  <g id="Group_18" data-name="Group 18" transform="translate(-1442 -113)">
    <path id="Path_21" data-name="Path 21" d="M156.092,0A156.092,156.092,0,1,1,0,156.092,156.092,156.092,0,0,1,156.092,0Z" transform="translate(1442 113)" fill="#4acfff"/>
    <g id="Group_12" data-name="Group 12" transform="translate(1248.049 64.929)">
      <path id="Path_22" data-name="Path 22" d="M403.278,167.226c-1.616-34.984-22.066-51.128-22.066-51.128a39.335,39.335,0,0,0-27.986-25.3c-3.231,7-2.692,20.452-2.692,20.452-7-11.84-22.068-15.071-22.068-15.071a65.014,65.014,0,0,0,0,24.758c-9.687,5.921-10.763,12.379-9.687,18.839s-14.531,12.916,4.305,26.371,34.447,5.382,38.752,7.536,0,13.992-27.449,10.763a195.959,195.959,0,0,0-68.4,4.53,199.448,199.448,0,0,0-31.9,10.063c-42.772,20.477-45.11,53.743-44.077,65.266,2.61,20.362,14.459,39.547,32.333,49.907,3.349,1.94,6.952,3.646,9.517,6.544,6.564,7.414,4.72,20.289,6.725,29.457,3.766,17.223,58.126,7.534,69.544,6.458s14.953-2.69,11.187-11.84c-3.433-8.336-37.676-5.953-43.741-5.461,5.338-7.874,16.648-25.761,23.52-45.273,60.514-4.8,87.5-28.92,87.5-28.92s4.305,69.428,8.071,77.5,25.3,7.534,26.373,0-9.15-12.379-9.15-12.379-2.692-6.458,9.687-67.275S403.278,167.226,403.278,167.226Z" transform="translate(13.786)" fill="#333" stroke="rgba(0,0,0,0)" stroke-miterlimit="10" stroke-width="1"/>
      <path id="Path_23" data-name="Path 23" d="M250.351,116.173s7.249-8.631,16.913-5.178C267.264,111,261.742,119.8,250.351,116.173Z" transform="translate(90.387 24.533)" fill="#ffbc3d" stroke="rgba(0,0,0,0)" stroke-miterlimit="10" stroke-width="1"/>
    </g>
  </g>
</svg>
