<svg xmlns="http://www.w3.org/2000/svg" width="227.826" height="194.689" viewBox="0 0 227.826 194.689">
  <g id="Group_5" data-name="Group 5" transform="translate(-932 -246.217)">
    <path id="Path_18" data-name="Path 18" d="M1130.181,243.2a11.944,11.944,0,0,1-4.915-4.084,9.93,9.93,0,0,1-1.771-5.71,9.549,9.549,0,0,1,4.084-7.987q4.083-3.071,11.239-4.228l8.963-1.373v-.867a5.81,5.81,0,0,0-1.084-3.9,4.718,4.718,0,0,0-3.686-1.229,5.226,5.226,0,0,0-2.421.506,13.023,13.023,0,0,0-2.2,1.518,8.771,8.771,0,0,1-1.662,1.156.839.839,0,0,1-.723.506h-8.384a1.611,1.611,0,0,1-1.193-.47,1.3,1.3,0,0,1-.4-1.12,7.923,7.923,0,0,1,1.951-4.373,14.749,14.749,0,0,1,5.71-4.156,22.926,22.926,0,0,1,9.469-1.735q8.961,0,13.3,3.939t4.336,10.661v21.9a1.8,1.8,0,0,1-.506,1.265,1.7,1.7,0,0,1-1.3.542h-8.89a1.853,1.853,0,0,1-1.807-1.807v-2.53a11.665,11.665,0,0,1-4.409,3.65,14.877,14.877,0,0,1-6.722,1.409A16.164,16.164,0,0,1,1130.181,243.2Zm15.757-9.143a8.494,8.494,0,0,0,1.988-6.071v-.867l-6,1.011q-6.071,1.157-6.071,4.337a3.14,3.14,0,0,0,1.409,2.674,5.848,5.848,0,0,0,3.505,1.012A6.8,6.8,0,0,0,1145.937,234.056Z" transform="translate(-85.897 127.295)" fill="#a647ce"/>
    <path id="Path_20" data-name="Path 20" d="M1072.622,423.946q-5.061-4.733-5.2-13.769v-2.241q.288-8.6,5.349-13.444t13.661-4.843a20.649,20.649,0,0,1,10.516,2.494,15.8,15.8,0,0,1,6.433,6.866,22.4,22.4,0,0,1,2.133,9.938v1.807a1.852,1.852,0,0,1-1.88,1.879h-22.912v.434a9.054,9.054,0,0,0,1.517,5.24,4.787,4.787,0,0,0,4.12,1.988,5,5,0,0,0,2.783-.687,9.656,9.656,0,0,0,1.987-1.771,3.815,3.815,0,0,1,1.048-.9,3.274,3.274,0,0,1,1.265-.181h9.469a1.681,1.681,0,0,1,1.12.4,1.233,1.233,0,0,1,.47.976q0,1.88-2.133,4.409a16.9,16.9,0,0,1-6.216,4.337,23.712,23.712,0,0,1-9.649,1.807Q1077.681,428.68,1072.622,423.946Zm19.588-18.684v-.145a8.475,8.475,0,0,0-1.518-5.385,5.133,5.133,0,0,0-4.264-1.915,5.03,5.03,0,0,0-4.229,1.915,8.624,8.624,0,0,0-1.481,5.385v.145Z" transform="translate(-68.085 -56.781)" fill="#a647ce"/>
    <path id="Path_12" data-name="Path 12" d="M1139.46,366.082q-4.011-4.408-4.3-12.576l-.072-2.53.072-2.6q.288-7.877,4.337-12.4t10.986-4.517a13.777,13.777,0,0,1,10.48,4.192v-15.4a1.7,1.7,0,0,1,.542-1.3,1.8,1.8,0,0,1,1.265-.506h9.324a1.89,1.89,0,0,1,1.338.506,1.7,1.7,0,0,1,.542,1.3v47.7a1.7,1.7,0,0,1-.542,1.3,1.885,1.885,0,0,1-1.338.506h-8.6a1.853,1.853,0,0,1-1.807-1.807V365.72q-3.9,4.77-11.2,4.77Q1143.471,370.491,1139.46,366.082Zm19.84-7.625a8.755,8.755,0,0,0,1.662-5.023q.144-2.022.145-2.747,0-.795-.145-2.674a7.62,7.62,0,0,0-1.7-4.662,5.667,5.667,0,0,0-4.59-1.843q-3.252,0-4.662,1.915a9.922,9.922,0,0,0-1.626,5.312l-.073,2.241.073,2.241a9.914,9.914,0,0,0,1.626,5.312q1.41,1.916,4.662,1.915A5.45,5.45,0,0,0,1159.3,358.456Z" transform="translate(-93.08 57.406)" fill="#a647ce"/>
    <path id="Path_15" data-name="Path 15" d="M1344.2,258.434a1.47,1.47,0,0,1-.434-1.084,2.935,2.935,0,0,1,.145-.94l5.71-13.588-13.878-32.814a2.813,2.813,0,0,1-.217-.8,2.27,2.27,0,0,1,.615-1.193,1.529,1.529,0,0,1,1.12-.47h8.6a2.1,2.1,0,0,1,2.1,1.518l8.023,20.527,8.24-20.527a2.313,2.313,0,0,1,2.168-1.518h8.529a1.531,1.531,0,0,1,1.12.47,1.455,1.455,0,0,1,.47,1.048,2.96,2.96,0,0,1-.145.939l-20.455,47.343a2.361,2.361,0,0,1-2.24,1.518h-8.384A1.471,1.471,0,0,1,1344.2,258.434Z" transform="translate(-217.271 126.118)" fill="#a647ce"/>
    <path id="Path_17" data-name="Path 17" d="M945.576,208.385V195.013h-5.71a1.852,1.852,0,0,1-1.807-1.807V186.99a1.7,1.7,0,0,1,.542-1.3,1.8,1.8,0,0,1,1.265-.506h5.71V173.257a1.7,1.7,0,0,1,.542-1.3,1.8,1.8,0,0,1,1.265-.506h8.89a1.733,1.733,0,0,1,1.807,1.807v11.926h9.035a1.891,1.891,0,0,1,1.337.506,1.7,1.7,0,0,1,.542,1.3v6.216a1.7,1.7,0,0,1-.542,1.3,1.884,1.884,0,0,1-1.337.506H958.08V207.3a6.51,6.51,0,0,0,.94,3.831,3.487,3.487,0,0,0,3.036,1.3h5.71a1.7,1.7,0,0,1,1.3.542,1.889,1.889,0,0,1,.506,1.337v6.65a1.8,1.8,0,0,1-.506,1.265,1.7,1.7,0,0,1-1.3.542H960.9Q945.574,222.768,945.576,208.385Z" transform="translate(28.996 148.485)" fill="#a647ce"/>
    <g id="Group_5-2" data-name="Group 5" transform="translate(1019.625 246.217)">
      <path id="Path_1" data-name="Path 1" d="M143.051,86.2a73.727,73.727,0,0,0-4.132-16.914c-3.171-8.361-7.976-16.241-15.76-20.95-9.13-5.478-19.989-6.727-30.368-5.382-27.1,3.652-43.726,15.184-54.2,1.826,0,0,9.033-3.94,10.859-8.649s3.652-9.418.769-12.685-5.766-5.766-7.208-7.592-6.343-3.171-6.343-3.171L38.494,0S24.752,0,22.637,12.685L24.752,0S11.778.769,8.9,18.067s0,27.1,0,27.1S1.688,64,19.754,79.091c0,0-11.663,2.261-15.315,8.027a5.436,5.436,0,0,0,7.217,7.868c4.325-2.883,5.159-2.744,10.981-4.652a54.116,54.116,0,0,1,19.674-3.216c9.533-.052,37.514-.251,54.035,6.859,15.269,5.153,28.52,7.362,40.074-2.009-.865,1.73.192,7.015,0,9.13a59.355,59.355,0,0,1-1.73,10.187,53,53,0,0,1-8.553,17.875c-7.5,10.091-17.01,17.586-29.791,19.6a44.212,44.212,0,0,1-34.788-9.706c-2.5-2.114-8.553-9.994-12.109-6.919-2.018,1.73-.769,3.748.481,5.574,3.075,4.325,7.976,8.169,12.493,10.955,7.976,4.9,17.3,8.265,26.716,8.361,9.13.1,18.163-2.979,25.947-7.784C136.9,135.886,145.934,110.515,143.051,86.2Z" transform="translate(-3.372 0)" fill="#333"/>
      <path id="Path_2" data-name="Path 2" d="M43.694,25.957s-2.4-5-9.994-3.075C33.7,22.978,36.391,28.168,43.694,25.957Z" transform="translate(-2.995 -1.256)" fill="#ffbc3d"/>
    </g>
    <path id="Path_19" data-name="Path 19" d="M853.715,243.018a14.991,14.991,0,0,1-5.891-3.975,6.884,6.884,0,0,1-1.915-4.192,1.511,1.511,0,0,1,.542-1.193,1.785,1.785,0,0,1,1.193-.469h8.746a.983.983,0,0,1,.723.289,16.3,16.3,0,0,1,1.373.94,14.522,14.522,0,0,0,2.566,1.554,6.86,6.86,0,0,0,2.855.542,6.171,6.171,0,0,0,3.216-.759,2.368,2.368,0,0,0,1.265-2.132,2.619,2.619,0,0,0-.687-1.879,6.985,6.985,0,0,0-2.6-1.409,40.489,40.489,0,0,0-5.818-1.409q-12.506-2.53-12.5-11.565a9.685,9.685,0,0,1,1.916-5.674,13.347,13.347,0,0,1,5.637-4.373,21.794,21.794,0,0,1,8.926-1.662,23.488,23.488,0,0,1,9.143,1.626,16.094,16.094,0,0,1,5.891,3.9,6.594,6.594,0,0,1,2.024,4.156,1.651,1.651,0,0,1-.47,1.156,1.476,1.476,0,0,1-1.12.506h-7.95a1.578,1.578,0,0,1-1.012-.289,11.4,11.4,0,0,1-1.735-1.084,19.489,19.489,0,0,0-2.277-1.337,5.762,5.762,0,0,0-2.494-.47,4.459,4.459,0,0,0-2.818.8,2.465,2.465,0,0,0-1.012,2.024,2.552,2.552,0,0,0,.615,1.771,6.214,6.214,0,0,0,2.53,1.337,44.938,44.938,0,0,0,5.818,1.373q7.083,1.23,10.3,4.373a10.081,10.081,0,0,1-1.59,15.974q-4.808,3.217-13.48,3.216A25.765,25.765,0,0,1,853.715,243.018Z" transform="translate(86.091 127.295)" fill="#a647ce"/>
    <path id="Path_14" data-name="Path 14" d="M1233.126,219.082q-4.011-4.408-4.3-12.576l-.072-2.53.072-2.6q.288-7.877,4.337-12.4t10.986-4.517a13.777,13.777,0,0,1,10.48,4.192v-15.4a1.7,1.7,0,0,1,.542-1.3,1.8,1.8,0,0,1,1.265-.506h9.324a1.889,1.889,0,0,1,1.337.506,1.7,1.7,0,0,1,.542,1.3v47.7a1.7,1.7,0,0,1-.542,1.3,1.884,1.884,0,0,1-1.337.506h-8.6a1.853,1.853,0,0,1-1.807-1.807V218.72q-3.9,4.77-11.2,4.77Q1237.137,223.491,1233.126,219.082Zm19.841-7.625a8.757,8.757,0,0,0,1.662-5.023q.144-2.022.145-2.747,0-.795-.145-2.674a7.622,7.622,0,0,0-1.7-4.662,5.666,5.666,0,0,0-4.59-1.843q-3.253,0-4.662,1.915a9.917,9.917,0,0,0-1.626,5.312l-.072,2.241.072,2.241a9.909,9.909,0,0,0,1.626,5.313q1.409,1.916,4.662,1.915A5.45,5.45,0,0,0,1252.966,211.456Z" transform="translate(-151.114 148.485)" fill="#a647ce"/>
    <path id="Path_9" data-name="Path 9" d="M853.715,390.018a14.991,14.991,0,0,1-5.891-3.975,6.884,6.884,0,0,1-1.915-4.192,1.511,1.511,0,0,1,.542-1.193,1.785,1.785,0,0,1,1.193-.469h8.746a.983.983,0,0,1,.723.289,16.3,16.3,0,0,1,1.373.94,14.522,14.522,0,0,0,2.566,1.554,6.86,6.86,0,0,0,2.855.542,6.171,6.171,0,0,0,3.216-.759,2.368,2.368,0,0,0,1.265-2.132,2.619,2.619,0,0,0-.687-1.879,6.986,6.986,0,0,0-2.6-1.409,40.5,40.5,0,0,0-5.818-1.409q-12.506-2.53-12.5-11.565a9.685,9.685,0,0,1,1.916-5.674,13.347,13.347,0,0,1,5.637-4.373,21.8,21.8,0,0,1,8.926-1.662,23.488,23.488,0,0,1,9.143,1.626,16.1,16.1,0,0,1,5.891,3.9,6.594,6.594,0,0,1,2.024,4.156,1.651,1.651,0,0,1-.47,1.156,1.476,1.476,0,0,1-1.12.506h-7.95a1.578,1.578,0,0,1-1.012-.289,11.4,11.4,0,0,1-1.735-1.084,19.485,19.485,0,0,0-2.277-1.337,5.761,5.761,0,0,0-2.494-.47,4.459,4.459,0,0,0-2.818.8,2.465,2.465,0,0,0-1.012,2.024,2.552,2.552,0,0,0,.615,1.771,6.214,6.214,0,0,0,2.53,1.337,44.93,44.93,0,0,0,5.818,1.373q7.083,1.23,10.3,4.373a10.081,10.081,0,0,1-1.59,15.974q-4.808,3.217-13.48,3.216A25.764,25.764,0,0,1,853.715,390.018Z" transform="translate(86.091 36.216)" fill="#a647ce"/>
    <path id="Path_10" data-name="Path 10" d="M945.576,355.385V342.013h-5.71a1.852,1.852,0,0,1-1.807-1.807V333.99a1.7,1.7,0,0,1,.542-1.3,1.8,1.8,0,0,1,1.265-.506h5.71V320.257a1.7,1.7,0,0,1,.542-1.3,1.8,1.8,0,0,1,1.265-.506h8.89a1.733,1.733,0,0,1,1.807,1.807v11.926h9.035a1.891,1.891,0,0,1,1.337.506,1.7,1.7,0,0,1,.542,1.3v6.216a1.7,1.7,0,0,1-.542,1.3,1.884,1.884,0,0,1-1.337.506H958.08V354.3a6.509,6.509,0,0,0,.94,3.831,3.487,3.487,0,0,0,3.036,1.3h5.71a1.7,1.7,0,0,1,1.3.542,1.889,1.889,0,0,1,.506,1.337v6.65a1.8,1.8,0,0,1-.506,1.265,1.7,1.7,0,0,1-1.3.542H960.9Q945.574,369.768,945.576,355.385Z" transform="translate(28.996 57.406)" fill="#a647ce"/>
    <path id="Path_11" data-name="Path 11" d="M1029.172,388.594q-3.9-4.264-3.9-12.071V356.357a1.7,1.7,0,0,1,.542-1.3,1.8,1.8,0,0,1,1.265-.506h9.613a1.891,1.891,0,0,1,1.338.506,1.7,1.7,0,0,1,.542,1.3v19.732q0,6.722,6,6.722a5.824,5.824,0,0,0,4.517-1.771,7.044,7.044,0,0,0,1.626-4.951V356.357a1.7,1.7,0,0,1,.542-1.3,1.889,1.889,0,0,1,1.338-.506h9.54a1.733,1.733,0,0,1,1.807,1.807v33.971a1.8,1.8,0,0,1-.506,1.265,1.7,1.7,0,0,1-1.3.542h-8.818a1.881,1.881,0,0,1-1.337-.506,1.7,1.7,0,0,1-.542-1.3v-2.747q-3.759,5.277-12,5.276A13.253,13.253,0,0,1,1029.172,388.594Z" transform="translate(-25.038 35.039)" fill="#a647ce"/>
    <path id="Path_13" data-name="Path 13" d="M1250.538,405.434a1.472,1.472,0,0,1-.434-1.084,2.921,2.921,0,0,1,.145-.94l5.71-13.588-13.877-32.815a2.817,2.817,0,0,1-.217-.8,2.269,2.269,0,0,1,.614-1.193,1.529,1.529,0,0,1,1.12-.47h8.6a2.1,2.1,0,0,1,2.1,1.518l8.023,20.527,8.24-20.527a2.314,2.314,0,0,1,2.168-1.518h8.529a1.53,1.53,0,0,1,1.12.47,1.454,1.454,0,0,1,.47,1.048,2.956,2.956,0,0,1-.144.939l-20.455,47.343a2.361,2.361,0,0,1-2.24,1.518h-8.384A1.471,1.471,0,0,1,1250.538,405.434Z" transform="translate(-159.238 35.039)" fill="#a647ce"/>
  </g>
</svg>
