<svg xmlns="http://www.w3.org/2000/svg" width="261.46" height="223.431" viewBox="0 0 261.46 223.431">
  <g id="Group_12" data-name="Group 12" transform="translate(-932 -246.217)">
    <path id="Path_18" data-name="Path 18" d="M1131.168,248.742a13.708,13.708,0,0,1-5.641-4.687,11.4,11.4,0,0,1-2.032-6.553,10.958,10.958,0,0,1,4.687-9.166q4.685-3.524,12.9-4.853l10.286-1.576v-1a6.668,6.668,0,0,0-1.244-4.479q-1.244-1.409-4.23-1.41a6,6,0,0,0-2.778.581,14.944,14.944,0,0,0-2.53,1.742,10.066,10.066,0,0,1-1.908,1.327.962.962,0,0,1-.83.581h-9.622a1.849,1.849,0,0,1-1.369-.539,1.5,1.5,0,0,1-.456-1.286,9.093,9.093,0,0,1,2.239-5.018,16.928,16.928,0,0,1,6.553-4.77,26.311,26.311,0,0,1,10.867-1.991q10.284,0,15.263,4.521t4.977,12.235v25.134a2.062,2.062,0,0,1-.581,1.452,1.952,1.952,0,0,1-1.493.622h-10.2a2.127,2.127,0,0,1-2.074-2.074v-2.9a13.386,13.386,0,0,1-5.06,4.189,17.073,17.073,0,0,1-7.714,1.618A18.549,18.549,0,0,1,1131.168,248.742Zm18.083-10.493q2.281-2.4,2.281-6.968v-.995l-6.885,1.161q-6.967,1.328-6.968,4.977a3.6,3.6,0,0,0,1.618,3.069,6.711,6.711,0,0,0,4.023,1.162A7.8,7.8,0,0,0,1149.251,238.249Z" transform="translate(-70.308 140.099)" fill="#fff"/>
    <path id="Path_20" data-name="Path 20" d="M1073.391,429.009q-5.808-5.432-5.973-15.8v-2.571q.331-9.87,6.139-15.428t15.677-5.558a23.7,23.7,0,0,1,12.069,2.862,18.129,18.129,0,0,1,7.382,7.88,25.707,25.707,0,0,1,2.447,11.405v2.074a2.125,2.125,0,0,1-2.157,2.157h-26.294v.5a10.39,10.39,0,0,0,1.741,6.014,5.494,5.494,0,0,0,4.728,2.281,5.744,5.744,0,0,0,3.194-.788,11.08,11.08,0,0,0,2.281-2.032,4.385,4.385,0,0,1,1.2-1.037,3.759,3.759,0,0,1,1.452-.207h10.866a1.929,1.929,0,0,1,1.286.456,1.415,1.415,0,0,1,.54,1.12q0,2.158-2.447,5.06a19.4,19.4,0,0,1-7.133,4.977,27.213,27.213,0,0,1-11.074,2.074Q1079.2,434.442,1073.391,429.009Zm22.479-21.442V407.4a9.726,9.726,0,0,0-1.742-6.18,5.891,5.891,0,0,0-4.894-2.2,5.773,5.773,0,0,0-4.853,2.2,9.9,9.9,0,0,0-1.7,6.18v.166Z" transform="translate(-58.144 -43.989)" fill="#fff"/>
    <path id="Path_12" data-name="Path 12" d="M1140.106,373.113q-4.6-5.059-4.936-14.433l-.082-2.9.082-2.986q.331-9.04,4.978-14.226t12.608-5.184q7.465,0,12.027,4.811V320.524a1.952,1.952,0,0,1,.622-1.493,2.064,2.064,0,0,1,1.452-.581h10.7a2.169,2.169,0,0,1,1.535.581,1.952,1.952,0,0,1,.622,1.493V375.27a1.949,1.949,0,0,1-.622,1.493,2.163,2.163,0,0,1-1.535.581h-9.87a2.126,2.126,0,0,1-2.074-2.074V372.7q-4.479,5.475-12.857,5.475Q1144.709,378.173,1140.106,373.113Zm22.769-8.751a10.046,10.046,0,0,0,1.908-5.765q.165-2.321.166-3.152,0-.912-.166-3.069a8.744,8.744,0,0,0-1.949-5.35,6.5,6.5,0,0,0-5.268-2.115q-3.732,0-5.35,2.2a11.387,11.387,0,0,0-1.866,6.1l-.083,2.571.083,2.572a11.378,11.378,0,0,0,1.866,6.1q1.618,2.2,5.35,2.2A6.254,6.254,0,0,0,1162.875,364.362Z" transform="translate(-76.84 76.544)" fill="#fff"/>
    <path id="Path_15" data-name="Path 15" d="M1345.484,265.946a1.687,1.687,0,0,1-.5-1.244,3.37,3.37,0,0,1,.166-1.078l6.553-15.594-15.926-37.659a3.23,3.23,0,0,1-.249-.912,2.6,2.6,0,0,1,.706-1.369,1.755,1.755,0,0,1,1.286-.539h9.871a2.414,2.414,0,0,1,2.405,1.742l9.207,23.557,9.456-23.557a2.655,2.655,0,0,1,2.488-1.742h9.788a1.757,1.757,0,0,1,1.285.539,1.67,1.67,0,0,1,.539,1.2,3.4,3.4,0,0,1-.166,1.078L1358.922,264.7a2.71,2.71,0,0,1-2.571,1.742h-9.622A1.688,1.688,0,0,1,1345.484,265.946Z" transform="translate(-189.774 139.028)" fill="#fff"/>
    <path id="Path_17" data-name="Path 17" d="M946.685,213.837V198.491h-6.553a2.126,2.126,0,0,1-2.074-2.074v-7.134a1.952,1.952,0,0,1,.622-1.493,2.066,2.066,0,0,1,1.452-.581h6.553V173.524a1.951,1.951,0,0,1,.622-1.493,2.062,2.062,0,0,1,1.451-.581h10.2a1.989,1.989,0,0,1,2.074,2.074V187.21H971.4a2.17,2.17,0,0,1,1.534.581,1.952,1.952,0,0,1,.622,1.493v7.134a1.948,1.948,0,0,1-.622,1.493,2.162,2.162,0,0,1-1.534.581H961.035v14.1a7.471,7.471,0,0,0,1.078,4.4,4,4,0,0,0,3.484,1.493h6.553a1.951,1.951,0,0,1,1.493.622,2.168,2.168,0,0,1,.581,1.535v7.631a2.063,2.063,0,0,1-.581,1.452,1.951,1.951,0,0,1-1.493.622h-7.88Q946.684,230.344,946.685,213.837Z" transform="translate(34.171 159.368)" fill="#fff"/>
    <g id="Group_5" data-name="Group 5" transform="translate(1032.558 246.217)">
      <path id="Exclusion_1" data-name="Exclusion 1" d="M98.913,180.212h0l-.481,0c-12.645-.128-23.652-5.289-30.66-9.595-3.592-2.217-10.231-6.8-14.337-12.573a10.328,10.328,0,0,1-1.682-3.239,3.011,3.011,0,0,1,1.13-3.157,3.2,3.2,0,0,1,2.148-.807c3.072,0,6.82,3.823,9.557,6.614.863.881,1.609,1.641,2.191,2.133A51.222,51.222,0,0,0,99.21,171.3a48.71,48.71,0,0,0,7.493-.578c13.323-2.1,24.506-9.464,34.189-22.5a61.028,61.028,0,0,0,9.815-20.514,67.755,67.755,0,0,0,1.985-11.69,26.815,26.815,0,0,0-.167-3.882c-.212-2.512-.452-5.358.167-6.594a32.333,32.333,0,0,1-10.243,5.7,34.155,34.155,0,0,1-11,1.7,55.772,55.772,0,0,1-11.953-1.432,120.325,120.325,0,0,1-12.8-3.666c-12.159-5.233-31.635-7.887-57.887-7.887-1.488,0-2.775.007-3.911.013h-.213c-10.732.059-15.689,1.434-22.578,3.691-1.371.449-2.487.8-3.473,1.1a27.125,27.125,0,0,0-9.129,4.238,5.74,5.74,0,0,1-3.194.967,6.466,6.466,0,0,1-5.59-3.307,6.375,6.375,0,0,1,.5-6.69,14.34,14.34,0,0,1,4.514-4.231,32.547,32.547,0,0,1,5.845-2.857A49.2,49.2,0,0,1,18.8,90.767,40.207,40.207,0,0,1,8.11,77.379,34.434,34.434,0,0,1,4.8,64.808,33.558,33.558,0,0,1,6.341,51.836,44.644,44.644,0,0,1,5.1,43.729a95.857,95.857,0,0,1,1.241-23A30.448,30.448,0,0,1,10.581,9.12a20.865,20.865,0,0,1,6.1-6.2A17.923,17.923,0,0,1,24.539,0L22.113,14.558A16.5,16.5,0,0,1,25.98,6.142,17.142,17.142,0,0,1,32.121,1.82,23.335,23.335,0,0,1,40.31,0l-2.1,14.558h.006c.58.164,5.709,1.657,7.273,3.639a48.9,48.9,0,0,0,3.515,3.736c1.454,1.454,3.1,3.1,4.756,4.976,1.484,1.682,2,3.859,1.586,6.657a39.421,39.421,0,0,1-2.466,7.9c-1.084,2.795-4.415,5.346-7.018,6.994a45.946,45.946,0,0,1-5.445,2.937c3.858,4.919,8.729,7.211,15.33,7.211,5.963,0,12.992-1.8,21.132-3.888a217.866,217.866,0,0,1,25.74-5.419,67.745,67.745,0,0,1,8.67-.571,56.46,56.46,0,0,1,13.532,1.584,45.993,45.993,0,0,1,12.648,5.163A37.437,37.437,0,0,1,148.5,65.925a60.183,60.183,0,0,1,7.058,13.593,83.9,83.9,0,0,1,4.645,40.33,77.722,77.722,0,0,1-5.32,19.969,68.989,68.989,0,0,1-10.634,17.611,65.18,65.18,0,0,1-16.042,13.848C118.739,177.122,108.608,180.212,98.913,180.212ZM39.006,24.313h0a15.43,15.43,0,0,0-3.764.5,6.575,6.575,0,0,0,1.73,2.113,8.76,8.76,0,0,0,5.808,2.045,13.65,13.65,0,0,0,3.931-.628,6.83,6.83,0,0,0-1.691-2.017,9.139,9.139,0,0,0-6.015-2.018Z" transform="translate(0)" fill="#4acfff"/>
    </g>
    <path id="Path_19" data-name="Path 19" d="M854.867,248.535a17.2,17.2,0,0,1-6.761-4.562,7.9,7.9,0,0,1-2.2-4.811,1.734,1.734,0,0,1,.622-1.369,2.048,2.048,0,0,1,1.369-.539h10.037a1.128,1.128,0,0,1,.83.331,18.722,18.722,0,0,1,1.576,1.078,16.661,16.661,0,0,0,2.945,1.783,7.872,7.872,0,0,0,3.276.622,7.081,7.081,0,0,0,3.691-.871,2.718,2.718,0,0,0,1.452-2.447,3.005,3.005,0,0,0-.788-2.157,8.015,8.015,0,0,0-2.986-1.617,46.462,46.462,0,0,0-6.677-1.617q-14.352-2.9-14.351-13.272a11.115,11.115,0,0,1,2.2-6.512,15.318,15.318,0,0,1,6.47-5.018,25.012,25.012,0,0,1,10.244-1.908,26.955,26.955,0,0,1,10.493,1.866A18.47,18.47,0,0,1,883.07,212q2.322,2.613,2.323,4.77a1.9,1.9,0,0,1-.54,1.327,1.694,1.694,0,0,1-1.286.581h-9.124a1.812,1.812,0,0,1-1.162-.332,13.072,13.072,0,0,1-1.991-1.244,22.374,22.374,0,0,0-2.613-1.535,6.613,6.613,0,0,0-2.862-.539,5.117,5.117,0,0,0-3.234.912,2.829,2.829,0,0,0-1.162,2.323,2.928,2.928,0,0,0,.706,2.032,7.131,7.131,0,0,0,2.9,1.535,51.578,51.578,0,0,0,6.677,1.576q8.128,1.411,11.82,5.018a11.569,11.569,0,0,1-1.825,18.332q-5.518,3.692-15.47,3.691A29.569,29.569,0,0,1,854.867,248.535Z" transform="translate(86.091 140.099)" fill="#fff"/>
    <path id="Path_14" data-name="Path 14" d="M1233.771,226.113q-4.6-5.059-4.935-14.433l-.083-2.9.083-2.986q.33-9.04,4.977-14.226t12.608-5.184q7.465,0,12.027,4.811V173.524a1.953,1.953,0,0,1,.622-1.493,2.063,2.063,0,0,1,1.452-.581h10.7a2.168,2.168,0,0,1,1.535.581,1.953,1.953,0,0,1,.622,1.493V228.27a1.949,1.949,0,0,1-.622,1.493,2.163,2.163,0,0,1-1.535.581h-9.871a2.126,2.126,0,0,1-2.074-2.074V225.7q-4.479,5.475-12.857,5.475Q1238.375,231.173,1233.771,226.113Zm22.77-8.751a10.049,10.049,0,0,0,1.908-5.765q.165-2.321.166-3.152,0-.912-.166-3.069a8.747,8.747,0,0,0-1.949-5.35,6.5,6.5,0,0,0-5.267-2.115q-3.733,0-5.35,2.2a11.381,11.381,0,0,0-1.866,6.1l-.083,2.571.083,2.571a11.373,11.373,0,0,0,1.866,6.1q1.618,2.2,5.35,2.2A6.255,6.255,0,0,0,1256.541,217.362Z" transform="translate(-129.613 159.368)" fill="#fff"/>
    <path id="Path_9" data-name="Path 9" d="M854.867,395.535a17.2,17.2,0,0,1-6.761-4.562,7.9,7.9,0,0,1-2.2-4.811,1.733,1.733,0,0,1,.622-1.369,2.048,2.048,0,0,1,1.369-.539h10.037a1.128,1.128,0,0,1,.83.331,18.726,18.726,0,0,1,1.576,1.078,16.666,16.666,0,0,0,2.945,1.783,7.873,7.873,0,0,0,3.276.622,7.081,7.081,0,0,0,3.691-.871,2.718,2.718,0,0,0,1.452-2.447,3.005,3.005,0,0,0-.788-2.157,8.017,8.017,0,0,0-2.986-1.618,46.489,46.489,0,0,0-6.677-1.617q-14.352-2.9-14.351-13.272a11.115,11.115,0,0,1,2.2-6.511,15.318,15.318,0,0,1,6.47-5.018,25.013,25.013,0,0,1,10.244-1.908,26.956,26.956,0,0,1,10.493,1.866A18.471,18.471,0,0,1,883.07,359q2.322,2.613,2.323,4.77a1.9,1.9,0,0,1-.54,1.327,1.694,1.694,0,0,1-1.286.581h-9.124a1.811,1.811,0,0,1-1.162-.332,13.072,13.072,0,0,1-1.991-1.244,22.36,22.36,0,0,0-2.613-1.535,6.612,6.612,0,0,0-2.862-.539,5.117,5.117,0,0,0-3.234.912,2.829,2.829,0,0,0-1.162,2.323,2.928,2.928,0,0,0,.706,2.032,7.13,7.13,0,0,0,2.9,1.535,51.563,51.563,0,0,0,6.677,1.576q8.128,1.411,11.82,5.018a11.569,11.569,0,0,1-1.825,18.332q-5.518,3.692-15.47,3.691A29.568,29.568,0,0,1,854.867,395.535Z" transform="translate(86.091 57.275)" fill="#fff"/>
    <path id="Path_10" data-name="Path 10" d="M946.685,360.837V345.491h-6.553a2.126,2.126,0,0,1-2.074-2.074v-7.134a1.952,1.952,0,0,1,.622-1.493,2.066,2.066,0,0,1,1.452-.581h6.553V320.524a1.951,1.951,0,0,1,.622-1.493,2.062,2.062,0,0,1,1.451-.581h10.2a1.989,1.989,0,0,1,2.074,2.074V334.21H971.4a2.17,2.17,0,0,1,1.534.581,1.952,1.952,0,0,1,.622,1.493v7.134a1.948,1.948,0,0,1-.622,1.493,2.162,2.162,0,0,1-1.534.581H961.035v14.1a7.471,7.471,0,0,0,1.078,4.4,4,4,0,0,0,3.484,1.493h6.553a1.951,1.951,0,0,1,1.493.622,2.168,2.168,0,0,1,.581,1.534v7.631a2.062,2.062,0,0,1-.581,1.452,1.951,1.951,0,0,1-1.493.622h-7.88Q946.684,377.344,946.685,360.837Z" transform="translate(34.171 76.544)" fill="#fff"/>
    <path id="Path_11" data-name="Path 11" d="M1029.748,393.619q-4.48-4.894-4.479-13.853V356.624a1.952,1.952,0,0,1,.622-1.493,2.066,2.066,0,0,1,1.452-.581h11.032a2.17,2.17,0,0,1,1.535.581,1.952,1.952,0,0,1,.622,1.493v22.645q0,7.714,6.884,7.714a6.684,6.684,0,0,0,5.184-2.032,8.085,8.085,0,0,0,1.866-5.682V356.624a1.952,1.952,0,0,1,.622-1.493,2.168,2.168,0,0,1,1.535-.581h10.949a1.988,1.988,0,0,1,2.074,2.074V395.61a2.064,2.064,0,0,1-.58,1.452,1.953,1.953,0,0,1-1.494.622h-10.12a2.159,2.159,0,0,1-1.534-.581,1.946,1.946,0,0,1-.622-1.493v-3.152q-4.314,6.055-13.77,6.055A15.209,15.209,0,0,1,1029.748,393.619Z" transform="translate(-14.965 56.204)" fill="#fff"/>
    <path id="Path_13" data-name="Path 13" d="M1251.819,412.946a1.689,1.689,0,0,1-.5-1.244,3.349,3.349,0,0,1,.166-1.078l6.553-15.594-15.926-37.659a3.237,3.237,0,0,1-.249-.912,2.6,2.6,0,0,1,.7-1.369,1.755,1.755,0,0,1,1.286-.539h9.871a2.414,2.414,0,0,1,2.406,1.742l9.207,23.557,9.456-23.557a2.655,2.655,0,0,1,2.489-1.742h9.788a1.756,1.756,0,0,1,1.286.539,1.669,1.669,0,0,1,.539,1.2,3.387,3.387,0,0,1-.166,1.078L1265.257,411.7a2.71,2.71,0,0,1-2.571,1.742h-9.622A1.689,1.689,0,0,1,1251.819,412.946Z" transform="translate(-137.001 56.204)" fill="#fff"/>
  </g>
</svg>
