<svg id="lonely-cat" xmlns="http://www.w3.org/2000/svg" width="693.532" height="503.319" viewBox="0 0 693.532 503.319">
  <path id="Path_191" data-name="Path 191" d="M346.766,260.049c191.514,0,346.766-9.064,346.766-20.245S538.28,219.558,346.766,219.558,0,228.622,0,239.8,155.253,260.049,346.766,260.049Z" transform="translate(0 243.27)" fill="#fff"/>
  <path id="Path_192" data-name="Path 192" d="M302.25,129.15H149.641a5.24,5.24,0,0,0-5.24,5.241v6.01a5.24,5.24,0,0,0,5.24,5.241H302.25a5.24,5.24,0,0,0,5.241-5.241v-6.01A5.24,5.24,0,0,0,302.25,129.15Z" transform="translate(159.996 143.098)" fill="#263238"/>
  <path id="Path_193" data-name="Path 193" d="M223.991,320.576h6.689l-7.69-183.6h-9.265Z" transform="translate(236.807 151.766)" fill="#8435a5"/>
  <path id="Path_194" data-name="Path 194" d="M223.991,320.576h6.689l-7.69-183.6h-9.265Z" transform="translate(236.807 151.766)" fill="#fff" opacity="0.6"/>
  <path id="Path_195" data-name="Path 195" d="M192.909,320.576H186.2l7.707-183.6h9.265Z" transform="translate(206.313 151.766)" fill="#8435a5"/>
  <path id="Path_196" data-name="Path 196" d="M192.909,320.576H186.2l7.707-183.6h9.265Z" transform="translate(206.313 151.766)" fill="#fff" opacity="0.6"/>
  <path id="Path_197" data-name="Path 197" d="M182.19,320.576h6.689l-7.709-183.6h-9.246Z" transform="translate(190.492 151.766)" fill="#8435a5"/>
  <path id="Path_198" data-name="Path 198" d="M182.19,320.576h6.689l-7.709-183.6h-9.246Z" transform="translate(190.492 151.766)" fill="#fff" opacity="0.6"/>
  <path id="Path_199" data-name="Path 199" d="M151.09,320.576H144.4l7.709-183.6h9.246Z" transform="translate(159.996 151.766)" fill="#8435a5"/>
  <path id="Path_200" data-name="Path 200" d="M151.09,320.576H144.4l7.709-183.6h9.246Z" transform="translate(159.996 151.766)" fill="#fff" opacity="0.6"/>
  <g id="Group_10" data-name="Group 10" transform="translate(311.765 288.72)" opacity="0.3">
    <path id="Path_201" data-name="Path 201" d="M222.99,136.964h-9.265l.43,7.816h9.157Z" transform="translate(-74.957 -136.964)" fill="#8435a5" opacity="0.3"/>
    <path id="Path_202" data-name="Path 202" d="M189.707,144.78h9.138l.447-7.816h-9.265Z" transform="translate(-101.569 -136.964)" fill="#8435a5" opacity="0.3"/>
    <path id="Path_203" data-name="Path 203" d="M171.924,136.964l.428,7.816h9.14l-.323-7.816Z" transform="translate(-121.273 -136.964)" fill="#8435a5" opacity="0.3"/>
    <path id="Path_204" data-name="Path 204" d="M147.9,144.78h9.157l.447-7.816h-9.282Z" transform="translate(-147.896 -136.964)" fill="#8435a5" opacity="0.3"/>
  </g>
  <path id="Path_205" data-name="Path 205" d="M194,25.852a2.882,2.882,0,0,0,2.576-3.112,2.621,2.621,0,1,0-5.15,0A2.882,2.882,0,0,0,194,25.852Z" transform="translate(212.103 21.748)" fill="#fff"/>
  <path id="Path_206" data-name="Path 206" d="M194.92,29.134l-1.484-.054-.913-7.172,2.827-.626Z" transform="translate(213.315 23.581)" fill="#fff"/>
  <path id="Path_207" data-name="Path 207" d="M209.246,161.09c-5.365,0-10.123-.8-13-3.416a10.277,10.277,0,0,1-3.13-8.048,82.77,82.77,0,0,1,3.381-21.766c2.485-9.747,4.452-17.438-1.52-26.934-9.516-15.077-6.672-36.163,0-49.38,5.1-10.1,3.362-21.3,2.7-25.521a7.093,7.093,0,0,0-.179-1.252.536.536,0,0,1,.464-.572.555.555,0,0,1,.573.465c0,.268.089.68.16,1.2.681,4.31,2.433,15.739-2.808,26.147-6.526,12.967-9.317,33.623,0,48.378,6.206,9.854,4.1,18.135,1.627,27.721a82.981,82.981,0,0,0-3.326,21.462,9.261,9.261,0,0,0,2.772,7.3c4.813,4.346,15.49,3.237,25.791,2.164,4.612-.465,9.37-.966,13.592-.966a.519.519,0,0,1,0,1.037,134.735,134.735,0,0,0-13.487.966A135.27,135.27,0,0,1,209.246,161.09Z" transform="translate(209.255 26.814)" fill="#fff"/>
  <path id="Path_208" data-name="Path 208" d="M232.793,87.323H212.44a1.073,1.073,0,0,0-1.073,1.073v1.431A1.073,1.073,0,0,0,212.44,90.9h20.353a1.073,1.073,0,0,0,1.073-1.073V88.4A1.073,1.073,0,0,0,232.793,87.323Z" transform="translate(234.195 96.754)" fill="#fff"/>
  <path id="Path_209" data-name="Path 209" d="M545.912,100.931H50.006a5.956,5.956,0,0,1,0-11.911H545.912a5.956,5.956,0,0,1,0,11.911Z" transform="translate(48.807 98.634)" fill="#8435a5"/>
  <path id="Path_210" data-name="Path 210" d="M346.274,100.931H230.184a5.956,5.956,0,0,1,0-11.911h116.09a5.956,5.956,0,0,1,0,11.911Z" transform="translate(248.446 98.634)" fill="#263238" opacity="0.3"/>
  <path id="Path_211" data-name="Path 211" d="M288.742,375.28H300.17L287.024,94.67h-15.81Z" transform="translate(300.505 104.895)" fill="#263238"/>
  <path id="Path_212" data-name="Path 212" d="M288.742,375.28H300.17L287.024,94.67h-15.81Z" transform="translate(300.505 104.895)" fill="#fff" opacity="0.1"/>
  <path id="Path_213" data-name="Path 213" d="M235.64,375.28H224.229L237.374,94.67h15.81Z" transform="translate(248.446 104.895)" fill="#263238"/>
  <path id="Path_214" data-name="Path 214" d="M235.64,375.28H224.229L237.374,94.67h15.81Z" transform="translate(248.446 104.895)" fill="#fff" opacity="0.2"/>
  <path id="Path_215" data-name="Path 215" d="M108.562,375.28H119.99L106.845,94.67H91.035Z" transform="translate(100.867 104.895)" fill="#263238"/>
  <path id="Path_216" data-name="Path 216" d="M108.562,375.28H119.99L106.845,94.67H91.035Z" transform="translate(100.867 104.895)" fill="#fff" opacity="0.1"/>
  <path id="Path_217" data-name="Path 217" d="M55.479,375.28H44.05L57.2,94.67h15.81Z" transform="translate(48.807 104.895)" fill="#263238"/>
  <path id="Path_218" data-name="Path 218" d="M55.479,375.28H44.05L57.2,94.67h15.81Z" transform="translate(48.807 104.895)" fill="#fff" opacity="0.2"/>
  <path id="Path_219" data-name="Path 219" d="M433.254,101.755H51.864v23.517h381.39Z" transform="translate(57.465 112.745)" fill="#263238"/>
  <path id="Path_220" data-name="Path 220" d="M433.254,101.755H51.864v23.517h381.39Z" transform="translate(57.465 112.745)" fill="#fff" opacity="0.2"/>
  <path id="Path_221" data-name="Path 221" d="M82.951,81.511a2.5,2.5,0,0,0-2.5,2.5V94.746a2.5,2.5,0,0,0,2.5,2.5h81.108a.822.822,0,0,0,.822-.8V82.334a.842.842,0,0,0-.822-.823Z" transform="translate(89.135 90.315)" fill="#8435a5"/>
  <path id="Path_222" data-name="Path 222" d="M105.167,82.233h33.981V95.038H105.167a1.451,1.451,0,0,1-1.448-1.449V83.663a1.447,1.447,0,0,1,1.448-1.431Z" transform="translate(114.921 91.114)" fill="#fff" opacity="0.9"/>
  <path id="Path_223" data-name="Path 223" d="M146.138,81.511H64.209a2.5,2.5,0,0,0-2.5,2.5v10.82a2.5,2.5,0,0,0,2.5,2.5h81.929a2.5,2.5,0,0,0,2.5-2.5V84.015A2.5,2.5,0,0,0,146.138,81.511Z" transform="translate(68.37 90.315)" fill="#8435a5"/>
  <path id="Path_224" data-name="Path 224" d="M146.138,81.511H64.209a2.5,2.5,0,0,0-2.5,2.5v10.82a2.5,2.5,0,0,0,2.5,2.5h81.929a2.5,2.5,0,0,0,2.5-2.5V84.015A2.5,2.5,0,0,0,146.138,81.511Z" transform="translate(68.37 90.315)" opacity="0.2"/>
  <path id="Path_225" data-name="Path 225" d="M89.714,81.511H77.284a1.019,1.019,0,0,0-1.019,1.019V96.32a1.019,1.019,0,0,0,1.019,1.019h12.43a1.019,1.019,0,0,0,1.019-1.019V82.531A1.019,1.019,0,0,0,89.714,81.511Z" transform="translate(84.501 90.315)" fill="#8435a5" opacity="0.5"/>
  <path id="Path_226" data-name="Path 226" d="M98.214,81.511H85.8a1.019,1.019,0,0,0-1.019,1.019V96.32A1.019,1.019,0,0,0,85.8,97.339H98.214a1.019,1.019,0,0,0,1.019-1.019V82.531A1.019,1.019,0,0,0,98.214,81.511Z" transform="translate(93.939 90.315)" fill="#8435a5" opacity="0.5"/>
  <path id="Path_227" data-name="Path 227" d="M75.977,72.291a2.5,2.5,0,0,0-2.5,2.5V89.282a2.486,2.486,0,0,0,2.5,2.486h87.868a.805.805,0,0,0,.805-.8V73.078a.825.825,0,0,0-.805-.823Z" transform="translate(81.408 80.059)" fill="#8435a5"/>
  <path id="Path_228" data-name="Path 228" d="M98.211,72.968H138.88V89.44H98.211a1.448,1.448,0,0,1-1.449-1.449V74.452a1.449,1.449,0,0,1,1.449-1.484Z" transform="translate(107.212 80.848)" fill="#fff" opacity="0.9"/>
  <path id="Path_229" data-name="Path 229" d="M132.321,72.272H63.429a2.5,2.5,0,0,0-2.5,2.5V89.245a2.5,2.5,0,0,0,2.5,2.5h68.892a2.5,2.5,0,0,0,2.5-2.5V74.776A2.5,2.5,0,0,0,132.321,72.272Z" transform="translate(67.505 80.078)" fill="#8435a5"/>
  <path id="Path_230" data-name="Path 230" d="M132.321,72.272H63.429a2.5,2.5,0,0,0-2.5,2.5V89.245a2.5,2.5,0,0,0,2.5,2.5h68.892a2.5,2.5,0,0,0,2.5-2.5V74.776A2.5,2.5,0,0,0,132.321,72.272Z" transform="translate(67.505 80.078)" fill="#fff" opacity="0.2"/>
  <path id="Path_231" data-name="Path 231" d="M119.049,74.1H68.6a1.52,1.52,0,0,0-1.52,1.52v8.71a1.52,1.52,0,0,0,1.52,1.52h50.453a1.52,1.52,0,0,0,1.52-1.52v-8.71A1.52,1.52,0,0,0,119.049,74.1Z" transform="translate(74.32 82.108)" fill="#8435a5" opacity="0.6"/>
  <path id="Path_232" data-name="Path 232" d="M88.22,67.906c-1.377,0-2.5.644-2.5,1.467v6.385c0,.8,1.127,1.467,2.5,1.467h81.106c.466,0,.824-.215.824-.483V68.317c0-.25-.358-.465-.824-.465Z" transform="translate(94.973 75.18)" fill="#8435a5"/>
  <path id="Path_233" data-name="Path 233" d="M110.088,68.268h34.249v7.547H110.1A1.108,1.108,0,0,1,109,74.706V69.341a1.109,1.109,0,0,1,1.092-1.073Z" transform="translate(120.768 75.641)" fill="#fff" opacity="0.9"/>
  <path id="Path_234" data-name="Path 234" d="M152,67.852H68.888a1.914,1.914,0,0,0-1.914,1.914v5.509a1.914,1.914,0,0,0,1.914,1.914H152a1.915,1.915,0,0,0,1.914-1.914V69.766A1.915,1.915,0,0,0,152,67.852Z" transform="translate(74.207 75.18)" fill="#8435a5"/>
  <path id="Path_235" data-name="Path 235" d="M152,67.852H68.888a1.914,1.914,0,0,0-1.914,1.914v5.509a1.914,1.914,0,0,0,1.914,1.914H152a1.915,1.915,0,0,0,1.914-1.914V69.766A1.915,1.915,0,0,0,152,67.852Z" transform="translate(74.207 75.18)" opacity="0.2"/>
  <path id="Path_236" data-name="Path 236" d="M74.4,67.852H71.8a.376.376,0,0,0-.375.376v8.585a.376.376,0,0,0,.375.376H74.4a.376.376,0,0,0,.376-.376V68.228A.376.376,0,0,0,74.4,67.852Z" transform="translate(79.143 75.18)" fill="#8435a5" opacity="0.5"/>
  <path id="Path_237" data-name="Path 237" d="M106.371,67.852h-2.54a.376.376,0,0,0-.375.376v8.585a.376.376,0,0,0,.375.376h2.54a.375.375,0,0,0,.375-.376V68.228A.375.375,0,0,0,106.371,67.852Z" transform="translate(114.629 75.18)" fill="#8435a5" opacity="0.5"/>
  <path id="Path_238" data-name="Path 238" d="M81.263,61.455c-1.377,0-2.5.662-2.5,1.467V73.455c0,.823,1.127,1.484,2.5,1.484h87.866c.449,0,.805-.215.805-.483V61.938c0-.25-.356-.465-.805-.465Z" transform="translate(87.265 68.092)" fill="#8435a5"/>
  <path id="Path_239" data-name="Path 239" d="M103.14,61.871h41.009V73.585H103.14a1.113,1.113,0,0,1-.784-.325,1.089,1.089,0,0,1-.24-.36,1.126,1.126,0,0,1-.084-.424v-9.5a1.126,1.126,0,0,1,.084-.424,1.088,1.088,0,0,1,.24-.36,1.111,1.111,0,0,1,.784-.325Z" transform="translate(113.05 68.553)" fill="#fff" opacity="0.9"/>
  <path id="Path_240" data-name="Path 240" d="M138.178,61.455H68.107a1.914,1.914,0,0,0-1.914,1.914v9.658a1.914,1.914,0,0,0,1.914,1.914h70.071a1.913,1.913,0,0,0,1.914-1.914V63.368A1.913,1.913,0,0,0,138.178,61.455Z" transform="translate(73.342 68.092)" fill="#8435a5"/>
  <path id="Path_241" data-name="Path 241" d="M138.178,61.455H68.107a1.914,1.914,0,0,0-1.914,1.914v9.658a1.914,1.914,0,0,0,1.914,1.914h70.071a1.913,1.913,0,0,0,1.914-1.914V63.368A1.913,1.913,0,0,0,138.178,61.455Z" transform="translate(73.342 68.092)" opacity="0.1"/>
  <path id="Path_242" data-name="Path 242" d="M212.5,87.612H138.675a1.484,1.484,0,1,0,0,2.969H212.5a1.484,1.484,0,1,0,0-2.969Z" transform="translate(152.005 97.074)" fill="#fff"/>
  <path id="Path_243" data-name="Path 243" d="M243.722,85.932h48.5l4.38,6.349H239.339Z" transform="translate(265.188 95.212)" fill="#263238"/>
  <path id="Path_244" data-name="Path 244" d="M283.813,37.995a6.529,6.529,0,1,1-.476-2.52A6.524,6.524,0,0,1,283.813,37.995Z" transform="translate(299.998 34.786)"/>
  <path id="Path_245" data-name="Path 245" d="M254.755,148.264a2,2,0,0,1-.786-.161,2.077,2.077,0,0,1-1.109-2.7L299.593,34.8a2.061,2.061,0,0,1,3.957.823,2.1,2.1,0,0,1-.164.787L256.669,147.048a2.093,2.093,0,0,1-1.914,1.216Z" transform="translate(279.996 37.172)" fill="#263238"/>
  <path id="Path_246" data-name="Path 246" d="M321.524,71.139a2.115,2.115,0,0,1-1.235-.393L235.444,7.04a2.057,2.057,0,0,1,2.468-3.291l84.862,63.616a2.057,2.057,0,0,1-1.233,3.7Z" transform="translate(259.961 3.699)" fill="#263238"/>
  <path id="Path_247" data-name="Path 247" d="M285.8,37.995a6.5,6.5,0,1,1-.47-2.523A6.521,6.521,0,0,1,285.8,37.995Z" transform="translate(302.207 34.786)" fill="#263238"/>
  <path id="Path_248" data-name="Path 248" d="M239.011,14.28a6.51,6.51,0,1,0-6.51-6.51A6.509,6.509,0,0,0,239.011,14.28Z" transform="translate(257.611 1.396)" fill="#263238"/>
  <path id="Path_249" data-name="Path 249" d="M244.356,31.56a14.613,14.613,0,1,1,4.267-10.32A14.595,14.595,0,0,1,244.356,31.56Z" transform="translate(243.144 7.365)" fill="#8435a5"/>
  <path id="Path_250" data-name="Path 250" d="M244.356,31.56a14.613,14.613,0,1,1,4.267-10.32A14.595,14.595,0,0,1,244.356,31.56Z" transform="translate(243.144 7.365)" fill="#fff" opacity="0.7"/>
  <path id="Path_251" data-name="Path 251" d="M258.836,9.165a31.26,31.26,0,0,0-44.228,0l44.228,44.229a31.261,31.261,0,0,0,0-44.229Z" transform="translate(237.786)" fill="#263238"/>
  <g id="Group_11" data-name="Group 11" transform="translate(266.715 9.165)" opacity="0.2">
    <path id="Path_252" data-name="Path 252" d="M312.2,4.348,126.525,182.837H317.014L356.432,48.559Z" transform="translate(-126.525 -4.348)" fill="#8435a5" opacity="0.2"/>
    <path id="Path_253" data-name="Path 253" d="M312.2,4.348,126.525,182.837H317.014L356.432,48.559Z" transform="translate(-126.525 -4.348)" fill="#fff" opacity="0.7"/>
  </g>
  <path id="Path_254" data-name="Path 254" d="M289.786,125.954a80.211,80.211,0,0,0-6.044-17.885c-4.151-8.728-10.177-16.883-19.048-21.247-10.354-5.079-22.284-5.365-33.408-2.969-29.027,6.421-45.965,20.478-58.556,6.957,0,0,9.425-5.133,10.947-10.391s3.04-10.516-.394-13.771-6.8-5.741-8.531-7.565-6.956-2.951-6.956-2.951l.786-13.861s-14.88,1.27-16.1,15.166l1.18-13.9s-14.02,1.985-15.542,21.032,2.523,29.277,2.523,29.277-6.1,21.032,14.88,35.769c0,0-12.18-.894-15.561,5.705s0,7.261,5.742,7.44c8.567.268,6.008.375,13.377.268,7.69-.107,16.1-1.788,24.073-.8s34.23.644,52.687,8.942c15.112,6.8,39.864-.465,47.27-18.4-.805,1.967.875,7.6.894,9.944a62.479,62.479,0,0,1-.93,11.232,56.568,56.568,0,0,1-7.654,20.192c-7.155,11.607-16.794,20.62-30.406,24a47.528,47.528,0,0,1-38.557-7.351c-2.844-2.038-10.142-10.034-13.772-6.349-1.986,2.022-.466,4.132,1.073,5.974a48.021,48.021,0,0,0,14.539,10.73,56.822,56.822,0,0,0,29.689,6.564,53.5,53.5,0,0,0,27.417-10.732C287.747,180.306,295.241,151.995,289.786,125.954Z" transform="translate(152.662 46.837)" fill="#363636"/>
  <path id="Path_255" data-name="Path 255" d="M162.389,58.463s-3.095-5.24-11.124-2.379C151.265,56.084,154.752,61.5,162.389,58.463Z" transform="translate(167.602 61.194)" fill="#edba4a"/>
  <path id="Path_256" data-name="Path 256" d="M161.159,27.077h-.017a5.491,5.491,0,0,0-5.491,5.491v.018a5.491,5.491,0,0,0,5.491,5.491h.017a5.491,5.491,0,0,0,5.491-5.491v-.018A5.491,5.491,0,0,0,161.159,27.077Z" transform="translate(172.461 30.001)" fill="#27385f"/>
  <path id="Path_257" data-name="Path 257" d="M151.456,26.67h-.019a3.542,3.542,0,0,0-3.541,3.541v.018a3.542,3.542,0,0,0,3.541,3.541h.019A3.541,3.541,0,0,0,155,30.229v-.018A3.541,3.541,0,0,0,151.456,26.67Z" transform="translate(163.869 29.55)" fill="#27385f"/>
  <path id="Path_258" data-name="Path 258" d="M163.745,39.884A2.745,2.745,0,1,0,161,42.63,2.745,2.745,0,0,0,163.745,39.884Z" transform="translate(175.348 41.15)" fill="#27385f"/>
  <path id="Path_259" data-name="Path 259" d="M156.1,38.6A3.095,3.095,0,1,0,153,41.69,3.094,3.094,0,0,0,156.1,38.6Z" transform="translate(166.097 39.336)" fill="#27385f"/>
</svg>
