<svg xmlns="http://www.w3.org/2000/svg" xmlns:xlink="http://www.w3.org/1999/xlink" width="482.687" height="531.715" viewBox="0 0 482.687 531.715">
  <defs>
    <clipPath id="clip-path">
      <path id="Path_146" data-name="Path 146" d="M255.182,264.654s-47.135,12.726-50.7,14-3.052,9.435-3.052,11.213-10.443,55.282-10.443,55.282a69.493,69.493,0,0,0-9.435,7.139C177.474,356.11,179,361.206,179,362.48s.252,1.778-1.022,3.052-4.074-1.009-3.556,6.887-2.3,26.54,4.83,27.508,10.709.265,21.152-3.3a26.208,26.208,0,0,0,14.517-11.943v30.07H342.816s12.991-37.965,13.761-62.926,4.074-61.665-.5-68.539-28.8-14.517-50.2-17.065S259,263.632,255.182,264.654Z" transform="translate(-174.293 -264.029)" fill="#ba68c8" stroke="#263238" stroke-linecap="round" stroke-linejoin="round" stroke-width="1"/>
    </clipPath>
    <clipPath id="clip-path-2">
      <path id="Path_154" data-name="Path 154" d="M238.474,264.152S234.148,416.4,235.926,416.4h31.091s.252-110.976,2.282-121.419,6.887-29.048,6.117-34.143-35.4-2.3-35.4-2.3A20.275,20.275,0,0,0,238.474,264.152Z" transform="translate(-235.497 -257.772)" fill="#fff" stroke="#263238" stroke-linecap="round" stroke-linejoin="round" stroke-width="1"/>
    </clipPath>
    <clipPath id="clip-path-3">
      <path id="Path_161" data-name="Path 161" d="M269.114,286.76a58.2,58.2,0,0,1-31.516,1.155c-1.168,45.516-2.919,119-1.672,119h31.091S267.256,302.909,269.114,286.76Z" transform="translate(-235.496 -286.76)" fill="#fff" stroke="#263238" stroke-linecap="round" stroke-linejoin="round" stroke-width="1"/>
    </clipPath>
    <clipPath id="clip-path-4">
      <path id="Path_176" data-name="Path 176" d="M283.209,294.518l4.844,27,5.308-30.069L314,289.17s-.186,32.1-.186,40.247,3.57,45.356,4.591,58.387-5.865,17.251-15.287,17.569-17.078-8.4-20.13-25.982.5-49.682-1.022-55.03S274,297.105,274,297.105Z" transform="translate(-274 -289.17)" fill="#ba68c8" stroke="#263238" stroke-linecap="round" stroke-linejoin="round" stroke-width="1"/>
    </clipPath>
  </defs>
  <g id="Group_14" data-name="Group 14" transform="translate(-273 -1173)">
    <g id="Group_13" data-name="Group 13">
      <g id="Studying-bro" transform="translate(204.71 1122.04)">
        <g id="freepik--background-simple--inject-10" transform="translate(93.695 70.309)">
          <path id="Path_93" data-name="Path 93" d="M166.291,109.184s-70.994,50.731-78.2,142.9,46.378,177.471,87.966,247.722,115.541,96.18,179.037,65.155,45.29-93.752,92.358-165.78,70.516-84.078,70.728-170.173S430.016,67.384,327.042,65.593,166.291,109.184,166.291,109.184Z" transform="translate(-87.435 -65.541)" fill="#ba68c8"/>
          <path id="Path_94" data-name="Path 94" d="M166.291,109.184s-70.994,50.731-78.2,142.9,46.378,177.471,87.966,247.722,115.541,96.18,179.037,65.155,45.29-93.752,92.358-165.78,70.516-84.078,70.728-170.173S430.016,67.384,327.042,65.593,166.291,109.184,166.291,109.184Z" transform="translate(-87.435 -65.541)" fill="#fff" opacity="0.7"/>
        </g>
        <g id="freepik--Fan--inject-10" transform="translate(157.773 50.96)">
          <line id="Line_1" data-name="Line 1" x2="22.041" transform="translate(107.919 66.124)" fill="#fff" stroke="#263238" stroke-miterlimit="10" stroke-width="2"/>
          <path id="Path_95" data-name="Path 95" d="M253.98,100.392l-3.45,10.337s-103.332,11.027-112.29-4.14,6.21-20.661,42.026-15.154S253.98,100.392,253.98,100.392Z" transform="translate(-135.723 -38.408)" fill="#fff" stroke="#263238" stroke-miterlimit="10" stroke-width="1"/>
          <line id="Line_2" data-name="Line 2" x1="22.041" transform="translate(174.985 66.124)" fill="#fff" stroke="#263238" stroke-miterlimit="10" stroke-width="2"/>
          <path id="Path_96" data-name="Path 96" d="M276.41,100.392l3.45,10.337s103.332,11.027,112.276-4.14-6.131-20.661-41.959-15.154S276.41,100.392,276.41,100.392Z" transform="translate(-89.721 -38.408)" fill="#fff" stroke="#263238" stroke-miterlimit="10" stroke-width="1"/>
          <path id="Path_97" data-name="Path 97" d="M241.266,118.259s-3.888,22.254,3.105,24.35,23.673,1.632,28.318-4.578,1.526-12.421-3.623-21.763S250.4,106.37,241.266,118.259Z" transform="translate(-101.565 -31.886)" fill="#fff" stroke="#263238" stroke-miterlimit="10" stroke-width="1"/>
          <path id="Path_98" data-name="Path 98" d="M248.24,50.96v69.76h6.277V54.1" transform="translate(-98.932 -50.96)" fill="#fff" stroke="#263238" stroke-miterlimit="10" stroke-width="1"/>
          <path id="Path_99" data-name="Path 99" d="M238.886,111.9a63.921,63.921,0,0,0,38.615,0h9.886v-8.957c0-6.635-13.071-11.943-29.194-11.943S229,96.308,229,102.943V111.9Z" transform="translate(-105.223 -37.867)" fill="#fff" stroke="#263238" stroke-miterlimit="10" stroke-width="1"/>
          <ellipse id="Ellipse_3" data-name="Ellipse 3" cx="29.194" cy="11.943" rx="29.194" ry="11.943" transform="translate(123.777 62.09)" fill="#fff" stroke="#263238" stroke-miterlimit="10" stroke-width="1"/>
          <ellipse id="Ellipse_4" data-name="Ellipse 4" cx="29.194" cy="11.943" rx="29.194" ry="11.943" transform="translate(123.777 62.09)" fill="#fff" stroke="#263238" stroke-miterlimit="10" stroke-width="1"/>
        </g>
        <g id="freepik--Bookshelves--inject-10" transform="translate(68.29 169.699)">
          <rect id="Rectangle_48" data-name="Rectangle 48" width="18.856" height="52.734" transform="translate(327.341 192.97)" fill="#a8a8a8"/>
          <rect id="Rectangle_49" data-name="Rectangle 49" width="9.422" height="31.343" transform="translate(332.065 197.296)" fill="#8c8c8c"/>
          <circle id="Ellipse_5" data-name="Ellipse 5" cx="2.8" cy="2.8" r="2.8" transform="translate(333.976 235.514)" fill="#8c8c8c"/>
          <rect id="Rectangle_50" data-name="Rectangle 50" width="18.856" height="52.734" transform="translate(354.266 192.97)" fill="#8c8c8c"/>
          <rect id="Rectangle_51" data-name="Rectangle 51" width="9.422" height="31.343" transform="translate(358.976 197.296)" fill="#a8a8a8"/>
          <circle id="Ellipse_6" data-name="Ellipse 6" cx="2.8" cy="2.8" r="2.8" transform="translate(360.9 235.514)" fill="#a8a8a8"/>
          <rect id="Rectangle_52" data-name="Rectangle 52" width="18.856" height="52.734" transform="translate(381.19 192.97)" fill="#8c8c8c"/>
          <rect id="Rectangle_53" data-name="Rectangle 53" width="9.422" height="31.343" transform="translate(385.901 197.296)" fill="#a8a8a8"/>
          <path id="Path_100" data-name="Path 100" d="M366.156,320.693a2.813,2.813,0,1,0-2.8,2.813,2.813,2.813,0,0,0,2.8-2.813Z" transform="translate(27.268 -82.42)" fill="#a8a8a8"/>
          <rect id="Rectangle_54" data-name="Rectangle 54" width="18.856" height="52.734" transform="translate(408.115 192.97)" fill="#a8a8a8"/>
          <rect id="Rectangle_55" data-name="Rectangle 55" width="9.422" height="31.343" transform="translate(412.825 197.296)" fill="#8c8c8c"/>
          <path id="Path_101" data-name="Path 101" d="M386.446,320.693a2.813,2.813,0,1,0-2.813,2.813A2.813,2.813,0,0,0,386.446,320.693Z" transform="translate(33.903 -82.42)" fill="#8c8c8c"/>
          <path id="Path_102" data-name="Path 102" d="M450.881,189.034v-3.822h-7.139V171h-5.6v14.212H312.795V171h-5.6v14.212H297.76v3.822h9.435v59.608H297.76v3.822h9.435v59.621H297.76v3.822h9.435v59.608H297.76v3.822h9.435V444.6h5.6V379.337H438.142V444.6h5.6V379.337h7.139v-3.822h-7.139V315.907h7.139v-3.822h-7.139V252.464h7.139v-3.822h-7.139V189.034ZM438.142,375.515H312.795V315.907H438.142Zm0-63.43H312.795V252.464H438.142Zm0-63.443H312.795V189.034H438.142Z" transform="translate(6.744 -130.447)" fill="#a8a8a8"/>
          <rect id="Rectangle_56" data-name="Rectangle 56" width="18.856" height="52.734" transform="translate(391.594 65.46)" fill="#8c8c8c"/>
          <rect id="Rectangle_57" data-name="Rectangle 57" width="9.422" height="31.343" transform="translate(396.304 69.786)" fill="#8c8c8c"/>
          <path id="Path_103" data-name="Path 103" d="M374,224.633a2.813,2.813,0,1,0-2.8,2.813,2.813,2.813,0,0,0,2.8-2.813Z" transform="translate(29.832 -113.83)" fill="#8c8c8c"/>
          <rect id="Rectangle_58" data-name="Rectangle 58" width="18.856" height="52.734" transform="translate(369.473 65.46)" fill="#8c8c8c"/>
          <rect id="Rectangle_59" data-name="Rectangle 59" width="9.422" height="31.343" transform="translate(374.197 69.786)" fill="#8c8c8c"/>
          <circle id="Ellipse_7" data-name="Ellipse 7" cx="2.8" cy="2.8" r="2.8" transform="translate(376.108 108.003)" fill="#8c8c8c"/>
          <rect id="Rectangle_60" data-name="Rectangle 60" width="18.856" height="52.734" transform="translate(347.365 65.46)" fill="#a8a8a8"/>
          <rect id="Rectangle_61" data-name="Rectangle 61" width="9.422" height="31.343" transform="translate(352.076 69.786)" fill="#8c8c8c"/>
          <circle id="Ellipse_8" data-name="Ellipse 8" cx="2.8" cy="2.8" r="2.8" transform="translate(353.987 108.003)" fill="#8c8c8c"/>
          <rect id="Rectangle_62" data-name="Rectangle 62" width="18.856" height="52.734" transform="translate(417.576 65.46)" fill="#8c8c8c"/>
          <rect id="Rectangle_63" data-name="Rectangle 63" width="9.422" height="31.343" transform="translate(422.3 69.786)" fill="#8c8c8c"/>
          <circle id="Ellipse_9" data-name="Ellipse 9" cx="2.8" cy="2.8" r="2.8" transform="translate(424.211 108.003)" fill="#8c8c8c"/>
          <rect id="Rectangle_64" data-name="Rectangle 64" width="18.856" height="52.734" transform="translate(323.811 65.46)" fill="#a8a8a8"/>
          <rect id="Rectangle_65" data-name="Rectangle 65" width="9.422" height="31.343" transform="translate(328.522 69.786)" fill="#8c8c8c"/>
          <circle id="Ellipse_10" data-name="Ellipse 10" cx="2.8" cy="2.8" r="2.8" transform="translate(330.433 108.003)" fill="#8c8c8c"/>
          <path id="Path_104" data-name="Path 104" d="M397.756,169.37H341.08a11.757,11.757,0,0,1,2.826,7.962h0a11.811,11.811,0,0,1-2.827,7.962h56.676a7.962,7.962,0,0,0,7.962-7.962h0A7.962,7.962,0,0,0,397.756,169.37Z" transform="translate(20.909 -130.98)" fill="#d4d4d4" stroke="#fff" stroke-miterlimit="10" stroke-width="1"/>
          <path id="Path_105" data-name="Path 105" d="M385.47,169.61v15.114a7.962,7.962,0,0,0,5.679-7.577h0a7.962,7.962,0,0,0-5.679-7.537Z" transform="translate(35.423 -130.902)" fill="#9c9c9c" stroke="#fff" stroke-miterlimit="10" stroke-width="1"/>
          <path id="Path_106" data-name="Path 106" d="M397.756,156.7H341.08a11.81,11.81,0,0,1,2.826,7.962h0a11.811,11.811,0,0,1-2.827,7.962h56.676a7.962,7.962,0,0,0,7.962-7.962h0A7.962,7.962,0,0,0,397.756,156.7Z" transform="translate(20.909 -135.123)" fill="#d4d4d4" stroke="#fff" stroke-miterlimit="10" stroke-width="1"/>
          <path id="Path_107" data-name="Path 107" d="M385.47,156.94v15.181a7.962,7.962,0,0,0,5.679-7.59h0a7.962,7.962,0,0,0-5.679-7.59Z" transform="translate(35.423 -135.045)" fill="#9c9c9c" stroke="#fff" stroke-miterlimit="10" stroke-width="1"/>
          <rect id="Rectangle_66" data-name="Rectangle 66" width="18.856" height="52.734" transform="translate(342.389)" fill="#a8a8a8"/>
          <rect id="Rectangle_67" data-name="Rectangle 67" width="9.422" height="31.343" transform="translate(347.1 4.326)" fill="#a8a8a8"/>
          <path id="Path_108" data-name="Path 108" d="M336.9,175.3a2.787,2.787,0,1,0-.816,1.984,2.8,2.8,0,0,0,.816-1.984Z" transform="translate(17.711 -129.957)" fill="#a8a8a8"/>
          <rect id="Rectangle_68" data-name="Rectangle 68" width="18.856" height="52.734" transform="translate(417.576 128.386)" fill="#a8a8a8"/>
          <rect id="Rectangle_69" data-name="Rectangle 69" width="9.422" height="31.343" transform="translate(422.3 132.725)" fill="#8c8c8c"/>
          <path id="Path_109" data-name="Path 109" d="M393.57,272.06a2.8,2.8,0,1,0-2.8,2.8A2.8,2.8,0,0,0,393.57,272.06Z" transform="translate(36.241 -98.318)" fill="#8c8c8c"/>
          <rect id="Rectangle_70" data-name="Rectangle 70" width="18.856" height="52.734" transform="translate(395.721 128.386)" fill="#a8a8a8"/>
          <rect id="Rectangle_71" data-name="Rectangle 71" width="9.422" height="31.343" transform="translate(400.431 132.725)" fill="#8c8c8c"/>
          <path id="Path_110" data-name="Path 110" d="M377.09,272.06a2.8,2.8,0,1,0-2.8,2.8,2.8,2.8,0,0,0,2.8-2.8Z" transform="translate(30.852 -98.318)" fill="#8c8c8c"/>
          <rect id="Rectangle_72" data-name="Rectangle 72" width="18.856" height="52.734" transform="translate(350.603 128.386)" fill="#a8a8a8"/>
          <rect id="Rectangle_73" data-name="Rectangle 73" width="9.422" height="31.343" transform="translate(355.314 132.725)" fill="#8c8c8c"/>
          <path id="Path_111" data-name="Path 111" d="M343.09,272.06a2.8,2.8,0,1,0-2.8,2.8A2.8,2.8,0,0,0,343.09,272.06Z" transform="translate(19.735 -98.318)" fill="#8c8c8c"/>
          <rect id="Rectangle_74" data-name="Rectangle 74" width="18.856" height="52.734" transform="translate(373.852 128.386)" fill="#a8a8a8"/>
          <rect id="Rectangle_75" data-name="Rectangle 75" width="9.422" height="31.343" transform="translate(378.563 132.725)" fill="#8c8c8c"/>
          <path id="Path_112" data-name="Path 112" d="M360.61,272.06a2.8,2.8,0,1,0-2.8,2.8,2.8,2.8,0,0,0,2.8-2.8Z" transform="translate(25.464 -98.318)" fill="#8c8c8c"/>
          <rect id="Rectangle_76" data-name="Rectangle 76" width="18.856" height="52.734" transform="translate(175.64 192.97)" fill="#a8a8a8"/>
          <rect id="Rectangle_77" data-name="Rectangle 77" width="9.422" height="31.343" transform="translate(180.351 197.296)" fill="#a8a8a8"/>
          <circle id="Ellipse_11" data-name="Ellipse 11" cx="2.8" cy="2.8" r="2.8" transform="translate(182.262 235.514)" fill="#a8a8a8"/>
          <rect id="Rectangle_78" data-name="Rectangle 78" width="18.856" height="52.734" transform="translate(202.551 192.97)" fill="#a8a8a8"/>
          <rect id="Rectangle_79" data-name="Rectangle 79" width="9.422" height="31.343" transform="translate(207.275 197.296)" fill="#a8a8a8"/>
          <circle id="Ellipse_12" data-name="Ellipse 12" cx="2.8" cy="2.8" r="2.8" transform="translate(209.186 235.514)" fill="#a8a8a8"/>
          <rect id="Rectangle_80" data-name="Rectangle 80" width="18.856" height="52.734" transform="translate(229.476 192.97)" fill="#a8a8a8"/>
          <rect id="Rectangle_81" data-name="Rectangle 81" width="9.422" height="31.343" transform="translate(234.2 197.296)" fill="#a8a8a8"/>
          <circle id="Ellipse_13" data-name="Ellipse 13" cx="2.8" cy="2.8" r="2.8" transform="translate(236.111 235.514)" fill="#a8a8a8"/>
          <rect id="Rectangle_82" data-name="Rectangle 82" width="18.856" height="52.734" transform="translate(256.4 192.97)" fill="#a8a8a8"/>
          <rect id="Rectangle_83" data-name="Rectangle 83" width="9.422" height="31.343" transform="translate(261.111 197.296)" fill="#a8a8a8"/>
          <path id="Path_113" data-name="Path 113" d="M272.116,320.693a2.813,2.813,0,1,0-2.8,2.813A2.813,2.813,0,0,0,272.116,320.693Z" transform="translate(-3.481 -82.42)" fill="#a8a8a8"/>
          <rect id="Rectangle_84" data-name="Rectangle 84" width="5.6" height="273.598" transform="translate(162.224 40.553)" fill="#a8a8a8"/>
          <rect id="Rectangle_85" data-name="Rectangle 85" width="5.6" height="273.598" transform="translate(293.171 40.553)" fill="#a8a8a8"/>
          <rect id="Rectangle_86" data-name="Rectangle 86" width="153.121" height="3.822" transform="translate(152.789 54.765)" fill="#a8a8a8"/>
          <rect id="Rectangle_87" data-name="Rectangle 87" width="153.121" height="3.822" transform="translate(152.789 118.195)" fill="#a8a8a8"/>
          <rect id="Rectangle_88" data-name="Rectangle 88" width="153.121" height="3.822" transform="translate(152.789 181.638)" fill="#a8a8a8"/>
          <rect id="Rectangle_89" data-name="Rectangle 89" width="153.121" height="3.822" transform="translate(152.789 245.068)" fill="#a8a8a8"/>
          <rect id="Rectangle_90" data-name="Rectangle 90" width="18.856" height="52.734" transform="translate(239.879 65.46)" fill="#a8a8a8"/>
          <rect id="Rectangle_91" data-name="Rectangle 91" width="9.422" height="31.343" transform="translate(244.59 69.786)" fill="#a8a8a8"/>
          <path id="Path_114" data-name="Path 114" d="M259.666,224.633a2.813,2.813,0,1,0-2.8,2.813,2.813,2.813,0,0,0,2.8-2.813Z" transform="translate(-7.552 -113.83)" fill="#a8a8a8"/>
          <rect id="Rectangle_92" data-name="Rectangle 92" width="18.856" height="52.734" transform="translate(217.772 65.46)" fill="#a8a8a8"/>
          <rect id="Rectangle_93" data-name="Rectangle 93" width="9.422" height="31.343" transform="translate(222.483 69.786)" fill="#8c8c8c"/>
          <circle id="Ellipse_14" data-name="Ellipse 14" cx="2.8" cy="2.8" r="2.8" transform="translate(224.393 108.003)" fill="#8c8c8c"/>
          <rect id="Rectangle_94" data-name="Rectangle 94" width="18.856" height="52.734" transform="translate(195.651 65.46)" fill="#a8a8a8"/>
          <rect id="Rectangle_95" data-name="Rectangle 95" width="9.422" height="31.343" transform="translate(200.362 69.786)" fill="#8c8c8c"/>
          <circle id="Ellipse_15" data-name="Ellipse 15" cx="2.8" cy="2.8" r="2.8" transform="translate(202.273 108.003)" fill="#8c8c8c"/>
          <rect id="Rectangle_96" data-name="Rectangle 96" width="18.856" height="52.734" transform="translate(265.875 65.46)" fill="#a8a8a8"/>
          <rect id="Rectangle_97" data-name="Rectangle 97" width="9.422" height="31.343" transform="translate(270.586 69.786)" fill="#8c8c8c"/>
          <circle id="Ellipse_16" data-name="Ellipse 16" cx="2.8" cy="2.8" r="2.8" transform="translate(272.497 108.003)" fill="#a8a8a8"/>
          <rect id="Rectangle_98" data-name="Rectangle 98" width="18.856" height="52.734" transform="translate(172.097 65.46)" fill="#a8a8a8"/>
          <rect id="Rectangle_99" data-name="Rectangle 99" width="9.422" height="31.343" transform="translate(176.808 69.786)" fill="#8c8c8c"/>
          <circle id="Ellipse_17" data-name="Ellipse 17" cx="2.8" cy="2.8" r="2.8" transform="translate(178.719 108.003)" fill="#8c8c8c"/>
          <rect id="Rectangle_100" data-name="Rectangle 100" width="18.856" height="52.734" transform="translate(172.097 1.765)" fill="#a8a8a8"/>
          <rect id="Rectangle_101" data-name="Rectangle 101" width="9.422" height="31.343" transform="translate(176.808 6.091)" fill="#8c8c8c"/>
          <circle id="Ellipse_18" data-name="Ellipse 18" cx="2.8" cy="2.8" r="2.8" transform="translate(178.719 44.308)" fill="#8c8c8c"/>
          <rect id="Rectangle_102" data-name="Rectangle 102" width="18.856" height="52.734" transform="translate(192.811 1.765)" fill="#a8a8a8"/>
          <rect id="Rectangle_103" data-name="Rectangle 103" width="9.422" height="31.343" transform="translate(197.535 6.091)" fill="#8c8c8c"/>
          <circle id="Ellipse_19" data-name="Ellipse 19" cx="2.8" cy="2.8" r="2.8" transform="translate(199.446 44.308)" fill="#8c8c8c"/>
          <rect id="Rectangle_104" data-name="Rectangle 104" width="18.856" height="52.734" transform="translate(265.172 36.691) rotate(90)" fill="#a8a8a8"/>
          <rect id="Rectangle_105" data-name="Rectangle 105" width="9.422" height="31.33" transform="translate(260.846 41.402) rotate(90)" fill="#8c8c8c"/>
          <path id="Path_115" data-name="Path 115" d="M234.69,178.68a2.8,2.8,0,1,0-2.8-2.8A2.8,2.8,0,0,0,234.69,178.68Z" transform="translate(-14.795 -129.767)" fill="#8c8c8c"/>
          <rect id="Rectangle_106" data-name="Rectangle 106" width="18.856" height="52.734" transform="translate(265.875 128.386)" fill="#a8a8a8"/>
          <rect id="Rectangle_107" data-name="Rectangle 107" width="9.422" height="31.343" transform="translate(270.586 132.725)" fill="#a8a8a8"/>
          <path id="Path_116" data-name="Path 116" d="M279.24,272.06a2.8,2.8,0,1,0-2.8,2.8,2.8,2.8,0,0,0,2.8-2.8Z" transform="translate(-1.143 -98.318)" fill="#a8a8a8"/>
          <rect id="Rectangle_108" data-name="Rectangle 108" width="18.856" height="52.734" transform="translate(244.006 128.386)" fill="#a8a8a8"/>
          <rect id="Rectangle_109" data-name="Rectangle 109" width="9.422" height="31.343" transform="translate(248.717 132.725)" fill="#a8a8a8"/>
          <path id="Path_117" data-name="Path 117" d="M262.76,272.06a2.8,2.8,0,1,0-2.8,2.8,2.8,2.8,0,0,0,2.8-2.8Z" transform="translate(-6.532 -98.318)" fill="#a8a8a8"/>
          <rect id="Rectangle_110" data-name="Rectangle 110" width="18.856" height="52.734" transform="translate(198.889 128.386)" fill="#a8a8a8"/>
          <rect id="Rectangle_111" data-name="Rectangle 111" width="9.422" height="31.343" transform="translate(203.599 132.725)" fill="#a8a8a8"/>
          <path id="Path_118" data-name="Path 118" d="M228.76,272.06a2.8,2.8,0,1,0-2.8,2.8A2.8,2.8,0,0,0,228.76,272.06Z" transform="translate(-17.65 -98.318)" fill="#a8a8a8"/>
          <rect id="Rectangle_112" data-name="Rectangle 112" width="18.856" height="52.734" transform="translate(222.137 128.386)" fill="#a8a8a8"/>
          <rect id="Rectangle_113" data-name="Rectangle 113" width="9.422" height="31.343" transform="translate(226.848 132.725)" fill="#a8a8a8"/>
          <path id="Path_119" data-name="Path 119" d="M246.28,272.06a2.8,2.8,0,1,0-2.8,2.8A2.8,2.8,0,0,0,246.28,272.06Z" transform="translate(-11.921 -98.318)" fill="#a8a8a8"/>
          <rect id="Rectangle_114" data-name="Rectangle 114" width="18.856" height="52.734" transform="translate(22.837 192.97)" fill="#a8a8a8"/>
          <rect id="Rectangle_115" data-name="Rectangle 115" width="9.422" height="31.343" transform="translate(27.548 197.296)" fill="#8c8c8c"/>
          <circle id="Ellipse_20" data-name="Ellipse 20" cx="2.8" cy="2.8" r="2.8" transform="translate(29.472 235.514)" fill="#8c8c8c"/>
          <rect id="Rectangle_116" data-name="Rectangle 116" width="18.856" height="52.734" transform="translate(49.762 192.97)" fill="#a8a8a8"/>
          <rect id="Rectangle_117" data-name="Rectangle 117" width="9.422" height="31.343" transform="translate(54.473 197.296)" fill="#8c8c8c"/>
          <circle id="Ellipse_21" data-name="Ellipse 21" cx="2.8" cy="2.8" r="2.8" transform="translate(56.397 235.514)" fill="#8c8c8c"/>
          <rect id="Rectangle_118" data-name="Rectangle 118" width="18.856" height="52.734" transform="translate(76.687 192.97)" fill="#8c8c8c"/>
          <rect id="Rectangle_119" data-name="Rectangle 119" width="9.422" height="31.343" transform="translate(81.397 197.296)" fill="#a8a8a8"/>
          <circle id="Ellipse_22" data-name="Ellipse 22" cx="2.8" cy="2.8" r="2.8" transform="translate(83.308 235.514)" fill="#a8a8a8"/>
          <rect id="Rectangle_120" data-name="Rectangle 120" width="18.856" height="52.734" transform="translate(103.611 192.97)" fill="#a8a8a8"/>
          <rect id="Rectangle_121" data-name="Rectangle 121" width="9.422" height="31.343" transform="translate(108.322 197.296)" fill="#8c8c8c"/>
          <circle id="Ellipse_23" data-name="Ellipse 23" cx="2.8" cy="2.8" r="2.8" transform="translate(110.233 235.514)" fill="#8c8c8c"/>
          <rect id="Rectangle_122" data-name="Rectangle 122" width="5.6" height="273.598" transform="translate(9.422 40.553)" fill="#a8a8a8"/>
          <rect id="Rectangle_123" data-name="Rectangle 123" width="5.6" height="273.598" transform="translate(140.382 40.553)" fill="#a8a8a8"/>
          <rect id="Rectangle_124" data-name="Rectangle 124" width="153.121" height="3.822" transform="translate(0 54.765)" fill="#a8a8a8"/>
          <rect id="Rectangle_125" data-name="Rectangle 125" width="153.121" height="3.822" transform="translate(0 118.195)" fill="#a8a8a8"/>
          <rect id="Rectangle_126" data-name="Rectangle 126" width="153.121" height="3.822" transform="translate(0 181.638)" fill="#a8a8a8"/>
          <rect id="Rectangle_127" data-name="Rectangle 127" width="153.121" height="3.822" transform="translate(0 245.068)" fill="#a8a8a8"/>
          <rect id="Rectangle_128" data-name="Rectangle 128" width="18.856" height="52.734" transform="translate(87.09 65.46)" fill="#8c8c8c"/>
          <rect id="Rectangle_129" data-name="Rectangle 129" width="9.422" height="31.343" transform="translate(91.801 69.786)" fill="#a8a8a8"/>
          <path id="Path_120" data-name="Path 120" d="M144.526,224.633a2.813,2.813,0,1,0-2.813,2.813A2.813,2.813,0,0,0,144.526,224.633Z" transform="translate(-45.201 -113.83)" fill="#a8a8a8"/>
          <rect id="Rectangle_130" data-name="Rectangle 130" width="18.856" height="52.734" transform="translate(64.969 65.46)" fill="#a8a8a8"/>
          <rect id="Rectangle_131" data-name="Rectangle 131" width="9.422" height="31.343" transform="translate(69.68 69.786)" fill="#8c8c8c"/>
          <circle id="Ellipse_24" data-name="Ellipse 24" cx="2.8" cy="2.8" r="2.8" transform="translate(71.604 108.003)" fill="#8c8c8c"/>
          <rect id="Rectangle_132" data-name="Rectangle 132" width="18.856" height="52.734" transform="translate(42.862 65.46)" fill="#a8a8a8"/>
          <rect id="Rectangle_133" data-name="Rectangle 133" width="9.422" height="31.343" transform="translate(47.572 69.786)" fill="#8c8c8c"/>
          <circle id="Ellipse_25" data-name="Ellipse 25" cx="2.8" cy="2.8" r="2.8" transform="translate(49.483 108.003)" fill="#8c8c8c"/>
          <rect id="Rectangle_134" data-name="Rectangle 134" width="18.856" height="52.734" transform="translate(113.072 65.46)" fill="#a8a8a8"/>
          <rect id="Rectangle_135" data-name="Rectangle 135" width="9.422" height="31.343" transform="translate(117.783 69.786)" fill="#8c8c8c"/>
          <circle id="Ellipse_26" data-name="Ellipse 26" cx="2.8" cy="2.8" r="2.8" transform="translate(119.707 108.003)" fill="#8c8c8c"/>
          <rect id="Rectangle_136" data-name="Rectangle 136" width="18.856" height="52.734" transform="translate(78.478 55.189) rotate(-90)" fill="#a8a8a8"/>
          <rect id="Rectangle_137" data-name="Rectangle 137" width="9.422" height="31.343" transform="translate(82.817 50.465) rotate(-90)" fill="#8c8c8c"/>
          <path id="Path_121" data-name="Path 121" d="M162.306,172.81a2.813,2.813,0,1,0,2.8,2.813,2.813,2.813,0,0,0-2.8-2.813Z" transform="translate(-38.472 -129.855)" fill="#8c8c8c"/>
          <rect id="Rectangle_138" data-name="Rectangle 138" width="18.856" height="52.734" transform="translate(76.514 36.665) rotate(-90)" fill="#a8a8a8"/>
          <rect id="Rectangle_139" data-name="Rectangle 139" width="9.422" height="31.343" transform="translate(80.84 31.941) rotate(-90)" fill="#8c8c8c"/>
          <path id="Path_122" data-name="Path 122" d="M160.81,158.85a2.787,2.787,0,1,0,1.984.816A2.8,2.8,0,0,0,160.81,158.85Z" transform="translate(-38.953 -134.42)" fill="#8c8c8c"/>
          <rect id="Rectangle_140" data-name="Rectangle 140" width="18.856" height="52.734" transform="translate(19.308 65.46)" fill="#a8a8a8"/>
          <rect id="Rectangle_141" data-name="Rectangle 141" width="9.422" height="31.343" transform="translate(24.018 69.786)" fill="#8c8c8c"/>
          <circle id="Ellipse_27" data-name="Ellipse 27" cx="2.8" cy="2.8" r="2.8" transform="translate(25.929 108.003)" fill="#8c8c8c"/>
          <rect id="Rectangle_142" data-name="Rectangle 142" width="18.856" height="52.734" transform="translate(113.072 128.386)" fill="#a8a8a8"/>
          <rect id="Rectangle_143" data-name="Rectangle 143" width="9.422" height="31.343" transform="translate(117.783 132.725)" fill="#8c8c8c"/>
          <path id="Path_123" data-name="Path 123" d="M164.106,272.067a2.813,2.813,0,1,0-2.8,2.8,2.813,2.813,0,0,0,2.8-2.8Z" transform="translate(-38.799 -98.324)" fill="#8c8c8c"/>
          <rect id="Rectangle_144" data-name="Rectangle 144" width="18.856" height="52.734" transform="translate(91.204 128.386)" fill="#8c8c8c"/>
          <rect id="Rectangle_145" data-name="Rectangle 145" width="9.422" height="31.343" transform="translate(95.928 132.725)" fill="#a8a8a8"/>
          <path id="Path_124" data-name="Path 124" d="M147.62,272.06a2.8,2.8,0,1,0-2.8,2.8A2.8,2.8,0,0,0,147.62,272.06Z" transform="translate(-44.181 -98.318)" fill="#a8a8a8"/>
          <rect id="Rectangle_146" data-name="Rectangle 146" width="18.856" height="52.734" transform="translate(23.78 128.386)" fill="#8c8c8c"/>
          <rect id="Rectangle_147" data-name="Rectangle 147" width="9.422" height="31.343" transform="translate(28.504 132.725)" fill="#a8a8a8"/>
          <path id="Path_125" data-name="Path 125" d="M96.81,272.06a2.8,2.8,0,1,0-2.8,2.8,2.8,2.8,0,0,0,2.8-2.8Z" transform="translate(-60.795 -98.318)" fill="#a8a8a8"/>
          <rect id="Rectangle_148" data-name="Rectangle 148" width="18.856" height="52.734" transform="translate(46.086 128.386)" fill="#8c8c8c"/>
          <rect id="Rectangle_149" data-name="Rectangle 149" width="9.422" height="31.343" transform="translate(50.81 132.725)" fill="#a8a8a8"/>
          <path id="Path_126" data-name="Path 126" d="M113.62,272.06a2.8,2.8,0,1,0-2.8,2.8A2.8,2.8,0,0,0,113.62,272.06Z" transform="translate(-55.299 -98.318)" fill="#a8a8a8"/>
          <rect id="Rectangle_150" data-name="Rectangle 150" width="18.856" height="52.734" transform="translate(69.335 128.386)" fill="#8c8c8c"/>
          <rect id="Rectangle_151" data-name="Rectangle 151" width="9.422" height="31.343" transform="translate(74.059 132.725)" fill="#a8a8a8"/>
          <path id="Path_127" data-name="Path 127" d="M131.14,272.06a2.8,2.8,0,1,0-2.8,2.8A2.8,2.8,0,0,0,131.14,272.06Z" transform="translate(-49.57 -98.318)" fill="#a8a8a8"/>
        </g>
        <g id="freepik--Coffee--inject-10" transform="translate(107.728 367.075)">
          <path id="Path_128" data-name="Path 128" d="M131.954,389.132H103.676L99.43,342.25H136.2Z" transform="translate(-97.546 -271.827)" fill="#ba68c8" stroke="#263238" stroke-linecap="round" stroke-linejoin="round" stroke-width="1"/>
          <rect id="Rectangle_152" data-name="Rectangle 152" width="40.526" height="4.061" rx="1.46" transform="translate(0 68.725)" fill="#fff" stroke="#263238" stroke-linecap="round" stroke-linejoin="round" stroke-width="1"/>
          <path id="Path_129" data-name="Path 129" d="M100.78,292.458a9.023,9.023,0,0,1,2.481-3.278" transform="translate(-97.104 -289.18)" fill="none" stroke="#263238" stroke-linecap="round" stroke-linejoin="round" stroke-width="1"/>
          <path id="Path_130" data-name="Path 130" d="M110.955,353.477s8.36-1.393,14.278-11.147-2.428-14.6-16.017-26.128c-8.453-7.152-10.3-15.26-9.4-21.232" transform="translate(-97.486 -287.287)" fill="none" stroke="#263238" stroke-linecap="round" stroke-linejoin="round" stroke-width="1"/>
          <path id="Path_131" data-name="Path 131" d="M127.413,348.454a14.172,14.172,0,0,0,6.237-8.519c1.752-6.635-.69-14.278-10.443-20.542s-14.982-7.962-19.507-13.933" transform="translate(-96.149 -283.857)" fill="none" stroke="#263238" stroke-linecap="round" stroke-linejoin="round" stroke-width="1"/>
          <path id="Path_132" data-name="Path 132" d="M116.3,340.167a17.252,17.252,0,0,0,4.459-1.327" transform="translate(-92.029 -272.942)" fill="none" stroke="#263238" stroke-linecap="round" stroke-linejoin="round" stroke-width="1"/>
        </g>
        <g id="freepik--Character--inject-10" transform="translate(152.01 235.882)">
          <path id="Path_133" data-name="Path 133" d="M210.312,313.386c-6.316-7.046-8.891-14.889-6.98-25.651,3.317-18.578,23.7-39.239,23.7-52.23s9.09-43.246,36.864-45.038,41.866,12.168,47.771,42.742,5.613,35.922,12.487,50.187c2.826,5.879,6.025,11.81,7.192,18.3,2.322,12.872-11.651,19.162-21.537,22.7-27.761,9.926-62.5,16.481-88.643-1.5a60.483,60.483,0,0,1-10.855-9.515Z" transform="translate(-108.055 -190.315)" fill="#263238" stroke="#263238" stroke-linecap="round" stroke-linejoin="round" stroke-width="1"/>
          <path id="Path_134" data-name="Path 134" d="M284.24,240.45a23.713,23.713,0,0,0,4.724,1.606" transform="translate(-81.397 -173.921)" fill="none" stroke="#fff" stroke-linecap="round" stroke-miterlimit="10" stroke-width="1"/>
          <path id="Path_135" data-name="Path 135" d="M255.54,208.65s10.948,25.876,23.886,34.342c2.906,1.9,5.454,3.41,7.657,4.631" transform="translate(-90.781 -184.32)" fill="none" stroke="#fff" stroke-linecap="round" stroke-miterlimit="10" stroke-width="1"/>
          <path id="Path_136" data-name="Path 136" d="M251.282,214.66c-6.29,10.868-18.273,28.092-34.382,35.324" transform="translate(-103.416 -182.354)" fill="none" stroke="#fff" stroke-linecap="round" stroke-miterlimit="10" stroke-width="1"/>
          <path id="Path_137" data-name="Path 137" d="M247.083,207.52s-.77,1.752-2.243,4.578" transform="translate(-94.28 -184.689)" fill="none" stroke="#fff" stroke-linecap="round" stroke-miterlimit="10" stroke-width="1"/>
          <path id="Path_138" data-name="Path 138" d="M228.867,241.66s-20.436,20.356-17.914,44.242" transform="translate(-105.431 -173.526)" fill="none" stroke="#fff" stroke-linecap="round" stroke-miterlimit="10" stroke-width="1"/>
          <path id="Path_139" data-name="Path 139" d="M230.269,245s-9.461,25.89-6.476,42.318" transform="translate(-101.353 -172.434)" fill="none" stroke="#fff" stroke-linecap="round" stroke-miterlimit="10" stroke-width="1"/>
          <path id="Path_140" data-name="Path 140" d="M255.182,264.654s-47.135,12.726-50.7,14-3.052,9.435-3.052,11.213-10.443,55.282-10.443,55.282a69.493,69.493,0,0,0-9.435,7.139C177.474,356.11,179,361.206,179,362.48s.252,1.778-1.022,3.052-4.074-1.009-3.556,6.887-2.3,26.54,4.83,27.508,10.709.265,21.152-3.3a26.208,26.208,0,0,0,14.517-11.943v30.07H342.816s12.991-37.965,13.761-62.926,4.074-61.665-.5-68.539-28.8-14.517-50.2-17.065S259,263.632,255.182,264.654Z" transform="translate(-117.348 -166.212)" fill="#ba68c8"/>
          <g id="Group_6" data-name="Group 6" transform="translate(56.945 97.817)" clip-path="url(#clip-path)">
            <path id="Path_141" data-name="Path 141" d="M317.218,275.4c.663.783.942,1.446.372,1.712-1.752.836-9.979,3.49-10.974,6.98s-.584-10.616-2.495-6.489-4.5,20.462-14.968,53.4c-8.373,26.288-12.912,59.887-10.085,79.991h29.764s12.991-37.965,13.761-62.926,4.074-61.665-.5-68.539a15.817,15.817,0,0,0-4.87-4.127Z" transform="translate(-140.308 -260.31)" opacity="0.24"/>
            <path id="Path_142" data-name="Path 142" d="M242.084,260.177a11.518,11.518,0,0,0-4.074,4.844c-1.778,3.556-16.813,31.33-18.087,32.6s6.874,1.022,10.191-.5,9.422-1.526,9.422-1.526l5.865,4.578,18.087,7.139s8.148-5.865,12.222-9.169,5.865-4.591,5.865-4.591a57.725,57.725,0,0,1,10.191,4.591c4.074,2.548,2.548,3.822,4.074,2.548s.77-3.822-1.327-7.391-8.4-23.182-16.309-30.521S251.505,253.037,242.084,260.177Z" transform="translate(-159.416 -266.69)" fill="#ba68c8" stroke="#263238" stroke-linecap="round" stroke-linejoin="round" stroke-width="1"/>
            <path id="Path_143" data-name="Path 143" d="M264.43,306.93l35.165.252-.77,9.939-18.087,9.169-16.309-8.917Z" transform="translate(-144.82 -250)" fill="#ba68c8" stroke="#263238" stroke-linecap="round" stroke-linejoin="round" stroke-width="1"/>
            <path id="Path_144" data-name="Path 144" d="M204.91,304.62l35.165.252-.77,9.939-18.087,9.169-16.309-8.917Z" transform="translate(-164.282 -250.756)" fill="#ba68c8" stroke="#263238" stroke-linecap="round" stroke-linejoin="round" stroke-width="1"/>
            <path id="Path_145" data-name="Path 145" d="M211.946,388.7s-1.99-75.346-.491-83.839-8.984-33.931-8.493-20.449,3.981,33.8,4.273,38.854-11.757,2.561-10.762,9.05,7.962,6.476,9.992,16.468-14.982,9.475-14.982,14.968,6,12.965,1.009,17.463-7.8-1.526-7.8-1.526a25.717,25.717,0,0,1,.982,14.809,81.867,81.867,0,0,0,11.372-3.211,26.208,26.208,0,0,0,14.517-11.943v10.828Z" transform="translate(-170.893 -258.627)" opacity="0.24"/>
          </g>
          <path id="Path_147" data-name="Path 147" d="M255.182,264.654s-47.135,12.726-50.7,14-3.052,9.435-3.052,11.213-10.443,55.282-10.443,55.282a69.493,69.493,0,0,0-9.435,7.139C177.474,356.11,179,361.206,179,362.48s.252,1.778-1.022,3.052-4.074-1.009-3.556,6.887-2.3,26.54,4.83,27.508,10.709.265,21.152-3.3a26.208,26.208,0,0,0,14.517-11.943v30.07H342.816s12.991-37.965,13.761-62.926,4.074-61.665-.5-68.539-28.8-14.517-50.2-17.065S259,263.632,255.182,264.654Z" transform="translate(-117.348 -166.212)" fill="none" stroke="#263238" stroke-linecap="round" stroke-linejoin="round" stroke-width="1"/>
          <path id="Path_148" data-name="Path 148" d="M206.98,322.09v44.082s-2.3-28.026-8.4-35.165" transform="translate(-109.407 -147.226)" fill="none" stroke="#263238" stroke-linecap="round" stroke-linejoin="round" stroke-width="1"/>
          <path id="Path_149" data-name="Path 149" d="M179,340s13.509,4.844,16.309,14.769-.5,16.309-.5,16.309" transform="translate(-115.809 -141.37)" fill="none" stroke="#263238" stroke-linecap="round" stroke-linejoin="round" stroke-width="1"/>
          <path id="Path_150" data-name="Path 150" d="M167.1,353.968s9.859-4.485,10.616-5.308,9.435-.411,13.058,8.824,1,13.668-.809,14.663-11.266,3.755-13.88,3.755S162.478,357.392,167.1,353.968Z" transform="translate(-120.068 -138.631)" fill="#ba68c8" stroke="#263238" stroke-linecap="round" stroke-linejoin="round" stroke-width="1"/>
          <path id="Path_151" data-name="Path 151" d="M238.474,264.152S234.148,416.4,235.926,416.4h31.091s.252-110.976,2.282-121.419,6.887-29.048,6.117-34.143-35.4-2.3-35.4-2.3A20.275,20.275,0,0,0,238.474,264.152Z" transform="translate(-97.335 -168.258)" fill="#fff"/>
          <g id="Group_7" data-name="Group 7" transform="translate(138.162 89.514)" clip-path="url(#clip-path-2)">
            <path id="Path_152" data-name="Path 152" d="M238.474,264.152S234.148,416.4,235.926,416.4h31.091s.252-110.976,2.282-121.419,6.887-29.048,6.117-34.143-35.4-2.3-35.4-2.3A20.275,20.275,0,0,0,238.474,264.152Z" transform="translate(-235.497 -257.772)" fill="#ba68c8"/>
            <path id="Path_153" data-name="Path 153" d="M238.474,264.152S234.148,416.4,235.926,416.4h31.091s.252-110.976,2.282-121.419,6.887-29.048,6.117-34.143-35.4-2.3-35.4-2.3A20.275,20.275,0,0,0,238.474,264.152Z" transform="translate(-235.497 -257.772)" fill="#fff" opacity="0.7"/>
          </g>
          <path id="Path_155" data-name="Path 155" d="M238.474,264.152S234.148,416.4,235.926,416.4h31.091s.252-110.976,2.282-121.419,6.887-29.048,6.117-34.143-35.4-2.3-35.4-2.3A20.275,20.275,0,0,0,238.474,264.152Z" transform="translate(-97.335 -168.258)" fill="none" stroke="#263238" stroke-linecap="round" stroke-linejoin="round" stroke-width="1"/>
          <path id="Path_156" data-name="Path 156" d="M269.114,286.76a58.2,58.2,0,0,1-31.516,1.155c-1.168,45.516-2.919,119-1.672,119h31.091S267.256,302.909,269.114,286.76Z" transform="translate(-97.335 -158.779)" fill="#fff"/>
          <g id="Group_8" data-name="Group 8" transform="translate(138.161 127.981)" clip-path="url(#clip-path-3)">
            <path id="Path_157" data-name="Path 157" d="M267.076,369.083c0-4.167,0-8.878.08-13.933H235.666c0,5.1-.119,9.793-.146,13.933Z" transform="translate(-235.489 -264.397)" fill="#263238"/>
            <path id="Path_158" data-name="Path 158" d="M236.065,335.15c-.093,4.777-.186,9.435-.265,13.933h31.4c0-4.552.08-9.223.133-13.933Z" transform="translate(-235.397 -270.937)" fill="#263238"/>
            <path id="Path_159" data-name="Path 159" d="M236.485,315.15c-.106,4.631-.212,9.289-.305,13.933h31.144c.066-4.751.133-9.435.212-13.933Z" transform="translate(-235.273 -277.477)" fill="#263238"/>
            <path id="Path_160" data-name="Path 160" d="M236.975,295.15c-.106,4.472-.226,9.143-.345,13.933h31.012c.119-5.215.265-9.939.425-13.933Z" transform="translate(-235.126 -284.017)" fill="#263238"/>
          </g>
          <path id="Path_162" data-name="Path 162" d="M269.114,286.76a58.2,58.2,0,0,1-31.516,1.155c-1.168,45.516-2.919,119-1.672,119h31.091S267.256,302.909,269.114,286.76Z" transform="translate(-97.335 -158.779)" fill="none" stroke="#263238" stroke-linecap="round" stroke-linejoin="round" stroke-width="1"/>
          <path id="Path_163" data-name="Path 163" d="M254.942,213s-4.591,14.517-24.456,27.522c0,0-1.327,18.087,4.074,31.582s19.613,24.2,25.73,22.93S278.376,280,282.45,270.326s4.087-27,4.087-27S265.889,229.866,254.942,213Z" transform="translate(-99.021 -182.897)" fill="#fff" stroke="#263238" stroke-linecap="round" stroke-linejoin="round" stroke-width="1"/>
          <path id="Path_164" data-name="Path 164" d="M247.756,250.1s-.518,8.4.756,9.169,3.57.5,3.822-2.3" transform="translate(-93.361 -170.766)" fill="none" stroke="#263238" stroke-linecap="round" stroke-linejoin="round" stroke-width="1"/>
          <path id="Path_165" data-name="Path 165" d="M245.81,261.252s7.9,1.526,12.222-1.022" transform="translate(-93.963 -167.454)" fill="none" stroke="#263238" stroke-linecap="round" stroke-linejoin="round" stroke-width="1"/>
          <path id="Path_166" data-name="Path 166" d="M249.457,231.272s-10.7-2.853-15.287,5.109" transform="translate(-97.769 -177.085)" fill="none" stroke="#263238" stroke-linecap="round" stroke-linejoin="round" stroke-width="1"/>
          <path id="Path_167" data-name="Path 167" d="M253.44,236.624s7.418-7.471,17.875-.73" transform="translate(-91.468 -176.333)" fill="none" stroke="#263238" stroke-linecap="round" stroke-linejoin="round" stroke-width="1"/>
          <path id="Path_168" data-name="Path 168" d="M236.4,243.18s4.843,4.591,12.739,1.327" transform="translate(-97.04 -173.029)" fill="none" stroke="#263238" stroke-linecap="round" stroke-linejoin="round" stroke-width="1"/>
          <path id="Path_169" data-name="Path 169" d="M254.61,244.124s6.635,3.065,12.222-.5" transform="translate(-91.086 -172.885)" fill="none" stroke="#263238" stroke-linecap="round" stroke-linejoin="round" stroke-width="1"/>
          <circle id="Ellipse_28" data-name="Ellipse 28" cx="10.696" cy="10.696" r="10.696" transform="translate(133.667 61.499)" fill="none" stroke="#263238" stroke-linecap="round" stroke-linejoin="round" stroke-width="0.75"/>
          <circle id="Ellipse_29" data-name="Ellipse 29" cx="10.696" cy="10.696" r="10.696" transform="translate(159.199 61.499)" fill="none" stroke="#263238" stroke-linecap="round" stroke-linejoin="round" stroke-width="0.75"/>
          <line id="Line_3" data-name="Line 3" x2="4.127" transform="translate(155.058 72.195)" fill="none" stroke="#263238" stroke-linecap="round" stroke-linejoin="round" stroke-width="0.75"/>
          <line id="Line_4" data-name="Line 4" x2="6.263" transform="translate(180.59 72.195)" fill="none" stroke="#263238" stroke-linecap="round" stroke-linejoin="round" stroke-width="0.75"/>
          <line id="Line_5" data-name="Line 5" x2="2.84" transform="translate(130.801 72.195)" fill="none" stroke="#263238" stroke-linecap="round" stroke-linejoin="round" stroke-width="0.75"/>
          <path id="Path_170" data-name="Path 170" d="M245.07,245.393s2.72.119.173,1.062-5.122.478-7.763-1.765C237.48,244.69,242.536,245.353,245.07,245.393Z" transform="translate(-96.687 -172.535)" fill="#263238" stroke="#263238" stroke-linecap="round" stroke-linejoin="round" stroke-width="1"/>
          <path id="Path_171" data-name="Path 171" d="M257.414,244.744s-2.654-.239-.305,1.022,5.016,1.154,7.962-.743A57.427,57.427,0,0,1,257.414,244.744Z" transform="translate(-90.586 -172.523)" fill="#263238" stroke="#263238" stroke-linecap="round" stroke-linejoin="round" stroke-width="1"/>
          <path id="Path_172" data-name="Path 172" d="M295.65,330.867l-4.074-42.039s-8.665-1.778-11.717-3.822-6.635-4.578-6.635-4.578-2.03,1.778-3.556,0-6.37-5.308-7.139-8.161,4.591-6.635,7.9-11.2,6.887-8.917,9.435-8.665,13.5,11.412,19.148,20.13,7.9,10.948,8.148,14.013,5.308,18.578,5.308,18.578l1.327,26.248Z" transform="translate(-88.521 -170.017)" fill="#fff" stroke="#263238" stroke-linecap="round" stroke-linejoin="round" stroke-width="1"/>
          <path id="Path_173" data-name="Path 173" d="M271.806,275.106s-5.016-4.95-5.016-6.436" transform="translate(-87.103 -164.694)" fill="none" stroke="#263238" stroke-linecap="round" stroke-linejoin="round" stroke-width="1"/>
          <path id="Path_174" data-name="Path 174" d="M283.209,294.518l4.844,27,5.308-30.069L314,289.17s-.186,32.1-.186,40.247,3.57,45.356,4.591,58.387-5.865,17.251-15.287,17.569-17.078-8.4-20.13-25.982.5-49.682-1.022-55.03S274,297.105,274,297.105Z" transform="translate(-84.745 -157.991)" fill="#ba68c8"/>
          <g id="Group_9" data-name="Group 9" transform="translate(189.255 131.179)" clip-path="url(#clip-path-4)">
            <path id="Path_175" data-name="Path 175" d="M299.46,405.056c7.683-1.141,12.912-5.852,12.022-17.251-1.022-12.991-4.591-50.187-4.591-58.387s.252-40.247.252-40.247l-3.344.372c-1.924,6.409-12.646,44.029-7.192,70.888,6,29.446,10.987,32.432,3,44.414Z" transform="translate(-267.108 -289.17)" opacity="0.24"/>
          </g>
          <path id="Path_177" data-name="Path 177" d="M283.209,294.518l4.844,27,5.308-30.069L314,289.17s-.186,32.1-.186,40.247,3.57,45.356,4.591,58.387-5.865,17.251-15.287,17.569-17.078-8.4-20.13-25.982.5-49.682-1.022-55.03S274,297.105,274,297.105Z" transform="translate(-84.745 -157.991)" fill="none" stroke="#263238" stroke-linecap="round" stroke-linejoin="round" stroke-width="1"/>
          <path id="Path_178" data-name="Path 178" d="M158.879,372.983s-.61,4.1,3.105,5.029,12.646-1.393,13.389-3.3a2.906,2.906,0,0,0-.584-3.145h-8.148S160.5,369.666,158.879,372.983Z" transform="translate(-122.4 -131.226)" fill="#fff" stroke="#263238" stroke-linecap="round" stroke-linejoin="round" stroke-width="1"/>
          <path id="Path_179" data-name="Path 179" d="M131.38,340.056l33.772,23.461,2.521-3.357L133.742,336.5Z" transform="translate(-131.38 -142.514)" fill="#263238" stroke="#263238" stroke-linecap="round" stroke-linejoin="round" stroke-width="1"/>
          <path id="Path_180" data-name="Path 180" d="M139.222,345.5l2.627-3.344-8.108-5.653-2.362,3.556Z" transform="translate(-131.38 -142.514)" fill="#fff" stroke="#263238" stroke-linecap="round" stroke-linejoin="round" stroke-width="1"/>
          <path id="Path_181" data-name="Path 181" d="M166.343,379.021a22.558,22.558,0,0,0,14.212-5.932c6.051-5.892,6.462-9.833-1.712-18.3s-26.049,1.446-26.619,5.189S166.343,379.021,166.343,379.021Z" transform="translate(-124.57 -137.622)" fill="#fff" stroke="#263238" stroke-linecap="round" stroke-linejoin="round" stroke-width="1"/>
          <path id="Path_182" data-name="Path 182" d="M184.632,365.115s-2.309,4.817-4.5,6.635-5.666,2.309-7.723-.624-4.167-12.036-5.958-12.221-10.722-3.118-13.27-6.635-2.415-6.237,3.2-4.565,20.635,3.623,20.635,3.623,3.556,2.136,6.025,9.634" transform="translate(-124.771 -139.016)" fill="#fff" stroke="#263238" stroke-linecap="round" stroke-linejoin="round" stroke-width="1"/>
          <path id="Path_183" data-name="Path 183" d="M154.72,372.15c.8.982,3.41,5.427,4.644,5.733s8.811-4.512,11.731-8.187-2.521-8.771-4.074-9.488S154.72,372.15,154.72,372.15Z" transform="translate(-123.748 -134.772)" fill="#fff" stroke="#263238" stroke-linecap="round" stroke-linejoin="round" stroke-width="1"/>
          <path id="Path_184" data-name="Path 184" d="M153.116,359.7s-6.635,3.981-5.056,6.715,6.887,6.887,8.586,6.157,13.137-6.051,13.084-8.957-.239-6.37-6.091-5.892A52.482,52.482,0,0,0,153.116,359.7Z" transform="translate(-126.005 -135.59)" fill="#fff" stroke="#263238" stroke-linecap="round" stroke-linejoin="round" stroke-width="1"/>
          <path id="Path_185" data-name="Path 185" d="M147.183,351.026s-3.225,6.555-.265,9.4,21.232,2.773,22.161-.571-5.918-4.061-10.948-6.224S147.887,349.474,147.183,351.026Z" transform="translate(-126.708 -137.945)" fill="#fff" stroke="#263238" stroke-linecap="round" stroke-linejoin="round" stroke-width="1"/>
          <path id="Path_186" data-name="Path 186" d="M217.413,379.918s-.5-8.665-8.148-11.717-11.731-1.791-28.8,2.8a163.317,163.317,0,0,1-32.869,5.1v3.822Z" transform="translate(-126.076 -132.694)" fill="#fff" stroke="#263238" stroke-linecap="round" stroke-linejoin="round" stroke-width="1"/>
          <path id="Path_187" data-name="Path 187" d="M200,379.918s.5-8.665,8.148-11.717,11.717-1.791,28.8,2.8a163.22,163.22,0,0,0,32.856,5.1v3.822Z" transform="translate(-108.942 -132.694)" fill="#fff" stroke="#263238" stroke-linecap="round" stroke-linejoin="round" stroke-width="1"/>
          <rect id="Rectangle_153" data-name="Rectangle 153" width="143.951" height="2.8" transform="translate(19.746 245.698)" fill="#263238" stroke="#263238" stroke-linecap="round" stroke-linejoin="round" stroke-width="1"/>
        </g>
        <g id="freepik--Device--inject-10" transform="translate(87.81 407.442)">
          <line id="Line_6" data-name="Line 6" x2="462.667" transform="translate(0 76.939)" fill="#fff" stroke="#263238" stroke-linecap="round" stroke-linejoin="round" stroke-width="1"/>
          <path id="Path_188" data-name="Path 188" d="M460.054,319.6H361.964L328.59,396.791h98.091Z" transform="translate(-2.695 -319.6)" fill="#fff" stroke="#263238" stroke-linecap="round" stroke-linejoin="round" stroke-width="1"/>
          <path id="Path_189" data-name="Path 189" d="M462.935,319.6H364.844L331.47,396.791h98.091Z" transform="translate(-1.754 -319.6)" fill="#263238" stroke="#263238" stroke-linecap="round" stroke-linejoin="round" stroke-width="1"/>
          <path id="Path_190" data-name="Path 190" d="M390.254,357.943c-2.521,3.981-7.245,5.547-10.55,3.45s-3.981-7.02-1.433-11.014,7.245-5.534,10.616-3.45S392.776,353.962,390.254,357.943Z" transform="translate(13.043 -310.967)" fill="#fff" stroke="#ba68c8" stroke-linecap="round" stroke-linejoin="round" stroke-width="1"/>
          <rect id="Rectangle_154" data-name="Rectangle 154" width="71.591" height="2.8" transform="translate(255.578 74.139)" fill="#fff" stroke="#263238" stroke-linecap="round" stroke-linejoin="round" stroke-width="1"/>
        </g>
      </g>
    </g>
  </g>
</svg>
