<svg xmlns="http://www.w3.org/2000/svg" width="420.79" height="372.56" viewBox="0 0 420.79 372.56">
  <g id="Group_17" data-name="Group 17" transform="translate(-511.21 608)">
    <g id="studying" transform="translate(473 -663)">
      <g id="freepik--background-complete--inject-2">
        <rect id="Rectangle_2" data-name="Rectangle 2" width="50.9" height="0.25" transform="translate(394.36 393.85)" fill="#ebebeb"/>
        <rect id="Rectangle_3" data-name="Rectangle 3" width="47.21" height="0.25" transform="translate(52.46 390.89)" fill="#ebebeb"/>
        <rect id="Rectangle_4" data-name="Rectangle 4" width="19.19" height="0.25" transform="translate(378.81 389.21)" fill="#ebebeb"/>
        <rect id="Rectangle_5" data-name="Rectangle 5" width="14.08" height="0.25" transform="translate(317.14 395.84)" fill="#ebebeb"/>
        <rect id="Rectangle_6" data-name="Rectangle 6" width="35.44" height="0.25" transform="translate(272.79 395.84)" fill="#ebebeb"/>
        <rect id="Rectangle_7" data-name="Rectangle 7" width="56.99" height="0.25" transform="translate(195.22 391.62)" fill="#ebebeb"/>
        <path id="Path_24" data-name="Path 24" d="M237,337.8H43.91a5.71,5.71,0,0,1-5.7-5.71V60.66A5.71,5.71,0,0,1,43.91,55H237a5.71,5.71,0,0,1,5.71,5.71V332.09A5.71,5.71,0,0,1,237,337.8ZM43.91,55.2a5.46,5.46,0,0,0-5.45,5.46V332.09a5.46,5.46,0,0,0,5.45,5.46H237a5.47,5.47,0,0,0,5.46-5.46V60.66A5.47,5.47,0,0,0,237,55.2Z" fill="#ebebeb"/>
        <path id="Path_25" data-name="Path 25" d="M453.31,337.8H260.21a5.72,5.72,0,0,1-5.71-5.71V60.66A5.72,5.72,0,0,1,260.21,55h193.1A5.71,5.71,0,0,1,459,60.66V332.09A5.71,5.71,0,0,1,453.31,337.8ZM260.21,55.2a5.47,5.47,0,0,0-5.46,5.46V332.09a5.47,5.47,0,0,0,5.46,5.46h193.1a5.47,5.47,0,0,0,5.46-5.46V60.66a5.47,5.47,0,0,0-5.46-5.46Z" fill="#ebebeb"/>
        <rect id="Rectangle_8" data-name="Rectangle 8" width="101.8" height="296.73" transform="translate(288.57 85.67)" fill="#ebebeb"/>
        <rect id="Rectangle_9" data-name="Rectangle 9" width="284.73" height="88.06" transform="translate(383.5 91.67) rotate(90)" fill="#fafafa"/>
        <rect id="Rectangle_10" data-name="Rectangle 10" width="101.8" height="296.73" transform="translate(183.72 85.67)" fill="#ebebeb"/>
        <rect id="Rectangle_11" data-name="Rectangle 11" width="3.05" height="294.4" transform="translate(288.57 381.24) rotate(180)" fill="#e0e0e0"/>
        <rect id="Rectangle_12" data-name="Rectangle 12" width="284.73" height="88.06" transform="translate(278.65 91.66) rotate(90)" fill="#fafafa"/>
        <path id="Path_26" data-name="Path 26" d="M436.87,83.44H137.22a1.34,1.34,0,0,1-1.33-1.33h0a1.34,1.34,0,0,1,1.33-1.33H436.87a1.34,1.34,0,0,1,1.33,1.33h0a1.34,1.34,0,0,1-1.33,1.33Z" fill="#e0e0e0"/>
        <rect id="Rectangle_13" data-name="Rectangle 13" width="5.67" height="88.06" transform="translate(383.5 91.67) rotate(90)" fill="#e0e0e0"/>
        <rect id="Rectangle_14" data-name="Rectangle 14" width="9.56" height="88.06" transform="translate(383.5 91.66) rotate(90)" fill="#e0e0e0"/>
        <rect id="Rectangle_15" data-name="Rectangle 15" width="20.89" height="88.06" transform="translate(278.65 91.66) rotate(90)" fill="#e0e0e0"/>
        <g id="Group_13" data-name="Group 13" opacity="0.8">
          <rect id="Rectangle_16" data-name="Rectangle 16" width="28.2" height="304.19" transform="translate(375.24 74.56)" fill="#f5f5f5"/>
          <rect id="Rectangle_17" data-name="Rectangle 17" width="13.31" height="304.19" transform="translate(382.69 74.56)" fill="#f0f0f0"/>
          <rect id="Rectangle_18" data-name="Rectangle 18" width="28.2" height="304.19" transform="translate(390.37 74.56)" fill="#f5f5f5"/>
          <rect id="Rectangle_19" data-name="Rectangle 19" width="13.31" height="304.19" transform="translate(397.82 74.56)" fill="#f0f0f0"/>
          <rect id="Rectangle_20" data-name="Rectangle 20" width="28.2" height="304.19" transform="translate(404.47 74.56)" fill="#f5f5f5"/>
        </g>
        <g id="Group_14" data-name="Group 14" opacity="0.8">
          <rect id="Rectangle_21" data-name="Rectangle 21" width="40.93" height="304.19" transform="translate(140.53 74.56)" fill="#f5f5f5"/>
          <rect id="Rectangle_22" data-name="Rectangle 22" width="19.32" height="304.19" transform="translate(151.33 74.56)" fill="#f0f0f0"/>
          <rect id="Rectangle_23" data-name="Rectangle 23" width="40.93" height="304.19" transform="translate(162.48 74.56)" fill="#f5f5f5"/>
          <rect id="Rectangle_24" data-name="Rectangle 24" width="19.32" height="304.19" transform="translate(173.28 74.56)" fill="#f0f0f0"/>
          <rect id="Rectangle_25" data-name="Rectangle 25" width="40.93" height="304.19" transform="translate(182.94 74.56)" fill="#f5f5f5"/>
        </g>
        <rect id="Rectangle_26" data-name="Rectangle 26" width="66.03" height="148.67" transform="translate(55.07 105.73)" fill="#f0f0f0"/>
        <rect id="Rectangle_27" data-name="Rectangle 27" width="2.08" height="148.67" transform="translate(123.18 254.41) rotate(180)" fill="#e6e6e6"/>
        <rect id="Rectangle_28" data-name="Rectangle 28" width="136.67" height="54.03" transform="translate(115.1 111.73) rotate(90)" fill="#fafafa"/>
        <path id="Path_27" data-name="Path 27" d="M125.26,328.07H57.48a5.64,5.64,0,0,1-5.63-5.62h0a5.64,5.64,0,0,1,5.63-5.62h67.78a5.64,5.64,0,0,1,5.62,5.62h0A5.64,5.64,0,0,1,125.26,328.07Z" fill="#f5f5f5"/>
        <path id="Path_28" data-name="Path 28" d="M73.78,328.07H62.65L50,382.4H61.12Z" fill="#e6e6e6"/>
        <path id="Path_29" data-name="Path 29" d="M95.98,328.07H84.86L78.63,382.4H89.75Z" fill="#e6e6e6"/>
        <path id="Path_30" data-name="Path 30" d="M108.96,328.07h11.12l12.66,54.33H121.61Z" fill="#e6e6e6"/>
      </g>
      <g id="freepik--Shadow--inject-2">
        <ellipse id="freepik--path--inject-2" cx="193.89" cy="11.32" rx="193.89" ry="11.32" transform="translate(56.11 404.92)" fill="#f5f5f5"/>
      </g>
      <g id="freepik--Character--inject-2">
        <rect id="Rectangle_29" data-name="Rectangle 29" width="91.19" height="9.22" rx="2.93" transform="translate(226.31 298.36)" fill="#263238"/>
        <path id="Path_31" data-name="Path 31" d="M313.76,410.24h3.74l-4.3-102.66h-5.18Z" fill="#8435a5"/>
        <path id="Path_32" data-name="Path 32" d="M313.76,410.24h3.74l-4.3-102.66h-5.18Z" fill="#fff" opacity="0.6"/>
        <path id="Path_33" data-name="Path 33" d="M279.33,410.24h-3.74l4.3-102.66h5.18Z" fill="#8435a5"/>
        <path id="Path_34" data-name="Path 34" d="M279.33,410.24h-3.74l4.3-102.66h5.18Z" fill="#fff" opacity="0.6"/>
        <path id="Path_35" data-name="Path 35" d="M264.49,410.24h3.74l-4.31-102.66h-5.17Z" fill="#8435a5"/>
        <path id="Path_36" data-name="Path 36" d="M264.49,410.24h3.74l-4.31-102.66h-5.17Z" fill="#fff" opacity="0.6"/>
        <path id="Path_37" data-name="Path 37" d="M230.05,410.24h-3.74l4.31-102.66h5.17Z" fill="#8435a5"/>
        <path id="Path_38" data-name="Path 38" d="M230.05,410.24h-3.74l4.31-102.66h5.17Z" fill="#fff" opacity="0.6"/>
        <g id="Group_15" data-name="Group 15" opacity="0.3">
          <path id="Path_39" data-name="Path 39" d="M313.2,307.57h-5.18l.24,4.37h5.12Z" fill="#8435a5"/>
          <path id="Path_40" data-name="Path 40" d="M279.71,311.94h5.11l.25-4.37h-5.18Z" fill="#8435a5"/>
          <path id="Path_41" data-name="Path 41" d="M258.75,307.57l.24,4.37h5.12l-.19-4.37Z" fill="#8435a5"/>
          <path id="Path_42" data-name="Path 42" d="M230.43,311.94h5.13l.24-4.37h-5.18Z" fill="#8435a5"/>
        </g>
        <path id="Path_43" data-name="Path 43" d="M262.08,395.15l-8.46,4.5-13.34-18.01,8.47-4.5Z" fill="#ffb573"/>
        <path id="Path_44" data-name="Path 44" d="M250.56,396.87l8.84-6.14a.68.68,0,0,1,1,.13l5.29,6.69a1.71,1.71,0,0,1-.41,2.36c-3.11,2.08-4.51,2.81-8.58,5.23-2.51,1.48-8.51,5-12.2,6.61s-5.17-2.09-3.75-3.1c3.37-2.38,7.83-7.06,8.84-10.35a2.67,2.67,0,0,1,.97-1.43Z" fill="#263238"/>
        <path id="Path_45" data-name="Path 45" d="M248.76,377.15l-8.48,4.49,6.43,8.68,8.28-4.76Z" opacity="0.2"/>
        <path id="Path_46" data-name="Path 46" d="M269.19,270.47s-65.74-2.05-66,25.42c-.32,39.48,37.15,91.33,37.15,91.33L255,377.47s-25.68-37.69-25.9-68.51c19.37-5.47,65-2,70.91-18.1,4.84-13.14,2.31-20.39,2.31-20.39Z" fill="#8435a5"/>
        <path id="Path_47" data-name="Path 47" d="M269.19,270.47s-65.74-2.05-66,25.42c-.32,39.48,37.15,91.33,37.15,91.33L255,377.47s-25.68-37.69-25.9-68.51c19.37-5.47,65-2,70.91-18.1,4.84-13.14,2.31-20.39,2.31-20.39Z" opacity="0.2"/>
        <path id="Path_48" data-name="Path 48" d="M258.98,379.98l-17.44,10.68-5.47-5.55,19.16-12.07Z" fill="#263238"/>
        <path id="Path_49" data-name="Path 49" d="M248.73,400.18a11.2,11.2,0,0,0,1.9-1.74.22.22,0,0,0-.17-.37c-.37,0-3.65,0-4.35,1.07a.85.85,0,0,0-.07.82,1.23,1.23,0,0,0,.92.83,2.62,2.62,0,0,0,1.77-.61Zm1.21-1.65c-1.21,1.26-2.28,1.93-2.9,1.82a.77.77,0,0,1-.58-.56.38.38,0,0,1,0-.4C246.86,398.83,248.63,398.58,249.94,398.53Z" fill="#8435a5"/>
        <path id="Path_50" data-name="Path 50" d="M250.59,398.48a.269.269,0,0,0,.07-.08.22.22,0,0,0,0-.22c-.06-.1-1.46-2.48-2.78-2.7a1.14,1.14,0,0,0-1,.29.85.85,0,0,0-.28,1c.42,1,2.73,1.81,3.84,1.74ZM247.3,396a.66.66,0,0,1,.51-.12c.79.13,1.75,1.38,2.25,2.14-1.09-.1-2.73-.8-3-1.45-.05-.12-.08-.29.17-.51C247.25,396.08,247.27,396.05,247.3,396Z" fill="#8435a5"/>
        <path id="Path_51" data-name="Path 51" d="M246.43,406.19l-9.5-.45-1.56-22.43,9.5.45Z" fill="#ffb573"/>
        <path id="Path_52" data-name="Path 52" d="M236.71,404.12l10.75-.34a.69.69,0,0,1,.74.63l.79,8.49a1.7,1.7,0,0,1-1.63,1.76c-3.74,0-5.54-.11-10.27,0-2.91.09-8.63.52-12.62,0s-3.38-4.43-1.65-4.58c4.11-.33,9.62-3.17,12.26-5.38a2.69,2.69,0,0,1,1.63-.58Z" fill="#263238"/>
        <path id="Path_53" data-name="Path 53" d="M233.37,405.89a11.714,11.714,0,0,0,2.54-.42.22.22,0,0,0,.06-.4c-.31-.2-3.08-2-4.23-1.48a.85.85,0,0,0-.5.65,1.23,1.23,0,0,0,.31,1.2,2.56,2.56,0,0,0,1.82.45Zm1.91-.72c-1.7.39-3,.38-3.42-.05a.82.82,0,0,1-.19-.79.4.4,0,0,1,.24-.32C232.53,403.74,234.15,404.49,235.28,405.17Z" fill="#8435a5"/>
        <path id="Path_54" data-name="Path 54" d="M235.86,405.48a.19.19,0,0,0,.1,0,.21.21,0,0,0,.11-.18c0-.12.14-2.88-.86-3.78a1.1,1.1,0,0,0-1-.28.85.85,0,0,0-.79.7c-.19,1,1.3,3,2.27,3.54a.27.27,0,0,0,.17,0Zm-1.43-3.84a.63.63,0,0,1,.48.18c.6.54.72,2.11.73,3-.86-.68-1.86-2.16-1.73-2.85,0-.13.09-.29.41-.34Z" fill="#8435a5"/>
        <path id="Path_55" data-name="Path 55" d="M244.88,383.76l-9.51-.45.89,12.83,9.48-.01Z" opacity="0.2"/>
        <path id="Path_56" data-name="Path 56" d="M292.57,270.47s-68.78,6.5-66.28,27.21c3.62,29.86,5.4,94.22,5.4,94.22l17.53.69s7.43-58,3.59-88.63c17.8,0,61.38,1.28,65.35-9.44,3.51-9.48,2.26-24,2.26-24Z" fill="#8435a5"/>
        <path id="Path_57" data-name="Path 57" d="M251.16,393.67l-21.04-1.04-.76-9.16,23.08,1.59Z" fill="#263238"/>
        <path id="Path_58" data-name="Path 58" d="M277.31,209.81c-.13,1.68-.26,3.14-.45,4.68s-.39,3-.63,4.56c-.47,3-1.07,6-1.77,9.07a71.769,71.769,0,0,1-6.59,18.22,32.69,32.69,0,0,1-3.09,4.59,20.83,20.83,0,0,1-4.54,4.22,22.69,22.69,0,0,1-11.07,3.74,32,32,0,0,1-10.29-1,40.2,40.2,0,0,1-4.66-1.5,19.259,19.259,0,0,1-2.23-1c-.73-.39-1.41-.71-2.25-1.16l2.63-6.69,1.91.24,2,.2c1.34.11,2.66.18,4,.18a27.669,27.669,0,0,0,7.21-.83,11.85,11.85,0,0,0,5.09-2.65,11.541,11.541,0,0,0,1.66-1.94,23.8,23.8,0,0,0,1.58-2.84,45.888,45.888,0,0,0,2.59-7.11c.76-2.53,1.37-5.18,1.92-7.88s1-5.43,1.45-8.18l.59-4.14c.18-1.36.38-2.82.51-4Z" fill="#ffb573"/>
        <path id="Path_59" data-name="Path 59" d="M277.37,201.66c-7-6.79-15.7-2.78-19.16,10a118,118,0,0,0-4,20.87l22.27,4.6C280.53,224.94,284.57,208.62,277.37,201.66Z" fill="#263238"/>
        <path id="Path_60" data-name="Path 60" d="M270.2,215.56c1.59-1.43,6.11,5,8.87,12.93-.78,3-1.67,5.89-2.58,8.6l-13.4-2.77C264.16,226.4,266.63,218.78,270.2,215.56Z" opacity="0.3"/>
        <path id="Path_61" data-name="Path 61" d="M230.86,244.54l-5-1.91-.22,10.61s8.4,3.63,10.11-.54l-.6-2.65a8.59,8.59,0,0,0-4.29-5.51Z" fill="#ffb573"/>
        <path id="Path_62" data-name="Path 62" d="M219.96,242.91l-2.95,8.9,8.67,1.43.22-10.61Z" fill="#ffb573"/>
        <path id="Path_63" data-name="Path 63" d="M227.52,250a.56.56,0,0,1-.51-.31l-8.93-17.19a.58.58,0,0,1,.24-.78.59.59,0,0,1,.78.25l8.9,17.16a.58.58,0,0,1-.24.78A.659.659,0,0,1,227.52,250Z" fill="#263238"/>
        <path id="Path_64" data-name="Path 64" d="M276.54,194.85l10.68-3,13.72-.64a9.51,9.51,0,0,1,9.5,6.56c2.61,8,5,19.52,6.77,29.49,2,11.19,3,28,3.21,43.26H269.19c-1.17-31.85-5.22-50.68-7-61.1a9.48,9.48,0,0,1,5.28-10.19Z" fill="#263238"/>
        <path id="Path_65" data-name="Path 65" d="M317.21,227.22c-1.38-7.85-3.16-16.69-5.14-24-9.13-1.54-13.55,18.48-10.84,28.41s17.16,3.91,17.16,3.91C318.05,232.55,317.65,229.74,317.21,227.22Z" opacity="0.3"/>
        <path id="Path_66" data-name="Path 66" d="M285.4,171c2.2,5.4.88,15.3-3.46,12.5S284.06,167.72,285.4,171Z" fill="#263238"/>
        <path id="Path_67" data-name="Path 67" d="M283,174.46l-4.15,6.34-5.64,8.63a8.62,8.62,0,0,1,1.74,2.55c1,2.08,1.89,3.63-2.48,6.61a2.91,2.91,0,0,0-1.31,2.86c.26,1.35,1.6,2.66,6.31,1.83a21.65,21.65,0,0,0,11.82-6.56c1.57-1.57,1.21-2.75-.3-4.38C284.67,187.74,283.39,180.39,283,174.46Z" fill="#ffb573"/>
        <path id="Path_68" data-name="Path 68" d="M274.56,187.3l3.46-6.15q.11.24.24.51A15.709,15.709,0,0,1,279,184c.63,2.73-1.49,6.63-3.82,8.49l-.27-.53a10.8,10.8,0,0,0-1.6-2.45.531.531,0,0,0-.14-.1Z" opacity="0.2"/>
        <path id="Path_69" data-name="Path 69" d="M253.79,167c-1.29,2.91,3.28,11.15,8.51,7.82S256.07,161.85,253.79,167Z" fill="#263238"/>
        <path id="Path_70" data-name="Path 70" d="M279,205.05a.29.29,0,0,1-.29-.24c-.38-2.47-2-4-3.83-5.86-2.32-2.27-4.95-4.85-5.81-9.9a.284.284,0,0,1,.56-.1c.84,4.87,3.4,7.38,5.65,9.59,1.85,1.81,3.59,3.52,4,6.18a.28.28,0,0,1-.24.33Z" fill="#fff"/>
        <path id="Path_71" data-name="Path 71" d="M281.13,164.07c2,9.06,3.56,14.27.33,20-4.88,8.67-17.08,7.49-21.72-.85-4.18-7.5-6.67-21.06,1.1-26.91a12.87,12.87,0,0,1,20.29,7.76Z" fill="#ffb573"/>
        <path id="Path_72" data-name="Path 72" d="M283.82,170.29c-3.12,4.43-11.3-3.7-10.63-9.16-8.12,4.62-16.94,10.79-22.29,5.59-6.18-6-4.49-14.6,2.75-15.37-1.28,2.5,6,3.61,9.87-.25,6.55-6.48,16.9-5.13,16.71.12C285.22,149.24,290.67,160.56,283.82,170.29Z" fill="#263238"/>
        <path id="Path_73" data-name="Path 73" d="M279.27,152.69c1.93-1.44.65-6.57-3.83-8.07C279.7,145.17,284.11,148.34,279.27,152.69Z" fill="#263238"/>
        <path id="Path_74" data-name="Path 74" d="M286.71,169.89a8.48,8.48,0,0,1-1.9,5.71c-1.72,2.05-4.37.42-5-2.14-.55-2.29.16-5.84,2.42-6.94S286.59,167.31,286.71,169.89Z" fill="#ffb573"/>
        <path id="Path_75" data-name="Path 75" d="M268.13,171.42c.24.73.06,1.47-.42,1.64s-1-.28-1.29-1a1.246,1.246,0,0,1,.42-1.65C267.32,170.23,267.89,170.68,268.13,171.42Z" fill="#263238"/>
        <path id="Path_76" data-name="Path 76" d="M259.93,174.42c.25.74.06,1.48-.42,1.65s-1.05-.28-1.29-1-.05-1.47.42-1.64S259.69,173.69,259.93,174.42Z" fill="#263238"/>
        <path id="Path_77" data-name="Path 77" d="M262.74,174a24.9,24.9,0,0,1-.76,6.49c1.47.54,3.09-.73,3.09-.73Z" fill="#ed893e"/>
        <path id="Path_78" data-name="Path 78" d="M267.13,183.83a6.61,6.61,0,0,0,3.91-3.45.23.23,0,0,0-.12-.3.24.24,0,0,0-.3.13,6.34,6.34,0,0,1-4.45,3.42.23.23,0,1,0,.09.45,6.847,6.847,0,0,0,.87-.25Z" fill="#263238"/>
        <path id="Path_79" data-name="Path 79" d="M268.88,168.24a.41.41,0,0,0,.17-.15.46.46,0,0,0-.14-.63,4.34,4.34,0,0,0-4.07-.42.45.45,0,0,0-.22.61.46.46,0,0,0,.61.21,3.47,3.47,0,0,1,3.19.36A.43.43,0,0,0,268.88,168.24Z" fill="#263238"/>
        <path id="Path_80" data-name="Path 80" d="M258.31,169.68a.47.47,0,0,0,0-.23.46.46,0,0,0-.6-.24,4.32,4.32,0,0,0-2.66,3.11.451.451,0,1,0,.89.15,3.45,3.45,0,0,1,2.12-2.42.46.46,0,0,0,.25-.37Z" fill="#263238"/>
        <path id="Path_81" data-name="Path 81" d="M308.67,198c1,1.62,1.8,3.08,2.63,4.64s1.63,3.08,2.41,4.64c1.58,3.11,3,6.31,4.38,9.57a96.141,96.141,0,0,1,3.63,10.12A57.111,57.111,0,0,1,324,238.25a27,27,0,0,1-.23,6.7,14.88,14.88,0,0,1-1.32,4.21,12.69,12.69,0,0,1-3.06,3.94,13.3,13.3,0,0,1-3.86,2.34,17.591,17.591,0,0,1-3.67,1,25,25,0,0,1-6.41.17,38.444,38.444,0,0,1-5.66-.91,54.178,54.178,0,0,1-5.26-1.48,66,66,0,0,1-9.86-4.18l2.53-6.73c6.22,1.18,12.9,2.27,18.51,1.93a15.681,15.681,0,0,0,3.62-.62c1-.3,1.51-.75,1.47-.89s-.06,0-.08-.1a4.84,4.84,0,0,1,0-.62,14.719,14.719,0,0,0-.2-3.36,46,46,0,0,0-2.23-8.37c-1-2.9-2.21-5.83-3.52-8.73s-2.72-5.81-4.15-8.71q-1.08-2.18-2.23-4.31l-2.26-4.19Z" fill="#ffb573"/>
        <path id="Path_82" data-name="Path 82" d="M304,191.31c-9.66-1.47-14.41,6.82-9.86,19.2a117.338,117.338,0,0,0,8.82,19.33l20.83-9.13C320,208.46,313.88,192.82,304,191.31Z" fill="#263238"/>
        <path id="Path_83" data-name="Path 83" d="M281.84,242.39l-4.46,1.34,6.33,9s9.38-3.36,7.46-7.44l-2.36-1.34C286.79,242.78,284.23,241.57,281.84,242.39Z" fill="#ffb573"/>
        <path id="Path_84" data-name="Path 84" d="M273.43,249.93l4.47,4.46,5.81-1.67-6.33-8.99Z" fill="#ffb573"/>
        <ellipse id="Ellipse_1" data-name="Ellipse 1" cx="1.44" cy="1.74" rx="1.44" ry="1.74" transform="translate(281.74 169.27)" fill="#fff"/>
        <path id="Path_85" data-name="Path 85" d="M284.37,175.61l-.83-.03-.51-4.01,1.58-.35Z" fill="#fff"/>
        <path id="Path_86" data-name="Path 86" d="M290.11,251.2c-3,0-5.66-.45-7.27-1.91a5.75,5.75,0,0,1-1.75-4.5A46.281,46.281,0,0,1,283,232.62c1.39-5.45,2.49-9.75-.85-15.06-5.32-8.43-3.73-20.22,0-27.61C285,184.3,284,178,283.64,175.68c-.05-.3-.09-.54-.11-.7a.28.28,0,0,1,.26-.31.29.29,0,0,1,.32.25c0,.15.05.38.09.67.38,2.41,1.37,8.8-1.57,14.62-3.65,7.25-5.21,18.8,0,27,3.47,5.51,2.29,10.14.92,15.5a45.9,45.9,0,0,0-1.87,12,5.18,5.18,0,0,0,1.55,4.08c2.7,2.43,8.66,1.81,14.42,1.21,2.58-.26,5.25-.54,7.6-.54a.29.29,0,1,1,0,.58,75.12,75.12,0,0,0-7.54.54,75.657,75.657,0,0,1-7.6.62Z" fill="#fff"/>
        <rect id="Rectangle_30" data-name="Rectangle 30" width="12.58" height="2" rx="0.6" transform="translate(305.24 249.06)" fill="#fff"/>
      </g>
      <g id="freepik--Desk--inject-2">
        <path id="Path_87" data-name="Path 87" d="M388.64,257.72H111.36a3.34,3.34,0,0,1-3.33-3.33h0a3.34,3.34,0,0,1,3.33-3.33H388.64a3.34,3.34,0,0,1,3.33,3.33h0a3.34,3.34,0,0,1-3.33,3.33Z" fill="#8435a5"/>
        <path id="Path_88" data-name="Path 88" d="M388.64,257.72H323.73a3.34,3.34,0,0,1-3.33-3.33h0a3.34,3.34,0,0,1,3.33-3.33h64.91a3.34,3.34,0,0,1,3.33,3.33h0a3.34,3.34,0,0,1-3.33,3.33Z" fill="#263238" opacity="0.3"/>
        <path id="Path_89" data-name="Path 89" d="M385.58,414.62h6.39l-7.35-156.9h-8.84Z" fill="#263238"/>
        <path id="Path_90" data-name="Path 90" d="M385.58,414.62h6.39l-7.35-156.9h-8.84Z" fill="#fff" opacity="0.1"/>
        <path id="Path_91" data-name="Path 91" d="M326.79,414.62H320.4l7.35-156.9h8.84Z" fill="#263238"/>
        <path id="Path_92" data-name="Path 92" d="M326.79,414.62H320.4l7.35-156.9h8.84Z" fill="#fff" opacity="0.2"/>
        <path id="Path_93" data-name="Path 93" d="M173.22,414.62h6.38l-7.35-156.9h-8.84Z" fill="#263238"/>
        <path id="Path_94" data-name="Path 94" d="M173.22,414.62h6.38l-7.35-156.9h-8.84Z" fill="#fff" opacity="0.1"/>
        <path id="Path_95" data-name="Path 95" d="M114.42,414.62h-6.39l7.35-156.9h8.84Z" fill="#263238"/>
        <path id="Path_96" data-name="Path 96" d="M114.42,414.62h-6.39l7.35-156.9h8.84Z" fill="#fff" opacity="0.2"/>
        <rect id="Rectangle_31" data-name="Rectangle 31" width="213.25" height="13.15" transform="translate(117.24 266.07)" fill="#263238"/>
        <rect id="Rectangle_32" data-name="Rectangle 32" width="213.25" height="13.15" transform="translate(117.24 266.07)" fill="#fff" opacity="0.2"/>
        <path id="Path_97" data-name="Path 97" d="M152.33,242.22a1.4,1.4,0,0,0-1.4,1.39v6a1.4,1.4,0,0,0,1.4,1.4h45.35a.46.46,0,0,0,.46-.45v-7.94a.46.46,0,0,0-.46-.45Z" fill="#8435a5"/>
        <path id="Path_98" data-name="Path 98" d="M179.17,243.06h19v7.16h-19a.81.81,0,0,1-.81-.81v-5.55A.81.81,0,0,1,179.17,243.06Z" fill="#fff" opacity="0.9"/>
        <rect id="Rectangle_33" data-name="Rectangle 33" width="48.61" height="8.85" rx="1.4" transform="translate(128.84 242.22)" fill="#8435a5"/>
        <rect id="Rectangle_34" data-name="Rectangle 34" width="48.61" height="8.85" rx="1.4" transform="translate(128.84 242.22)" opacity="0.2"/>
        <rect id="Rectangle_35" data-name="Rectangle 35" width="8.09" height="8.85" rx="0.57" transform="translate(146 242.22)" fill="#8435a5" opacity="0.5"/>
        <rect id="Rectangle_36" data-name="Rectangle 36" width="8.08" height="8.85" rx="0.57" transform="translate(156.04 242.22)" fill="#8435a5" opacity="0.5"/>
        <path id="Path_99" data-name="Path 99" d="M144.13,231.32a1.4,1.4,0,0,0-1.4,1.4v8.1a1.4,1.4,0,0,0,1.4,1.4h49.13a.46.46,0,0,0,.45-.46v-10a.46.46,0,0,0-.45-.46Z" fill="#8435a5"/>
        <path id="Path_100" data-name="Path 100" d="M171,232.17h22.74v9.21H171a.81.81,0,0,1-.81-.81V233a.81.81,0,0,1,.81-.83Z" fill="#fff" opacity="0.9"/>
        <rect id="Rectangle_37" data-name="Rectangle 37" width="41.32" height="10.89" rx="1.4" transform="translate(127.92 231.32)" fill="#8435a5"/>
        <rect id="Rectangle_38" data-name="Rectangle 38" width="41.32" height="10.89" rx="1.4" transform="translate(127.92 231.32)" fill="#fff" opacity="0.2"/>
        <rect id="Rectangle_39" data-name="Rectangle 39" width="29.91" height="6.57" rx="0.85" transform="translate(135.17 233.48)" fill="#8435a5" opacity="0.6"/>
        <path id="Path_101" data-name="Path 101" d="M158.54,226.11c-.77,0-1.4.37-1.4.82v3.57c0,.45.63.82,1.4.82H203.9c.25,0,.45-.12.45-.26v-4.68c0-.15-.2-.27-.45-.27Z" fill="#8435a5"/>
        <path id="Path_102" data-name="Path 102" d="M185.2,226.6h19.15v4.22H185.2a.62.62,0,0,1-.62-.62v-3a.62.62,0,0,1,.62-.6Z" fill="#fff" opacity="0.9"/>
        <rect id="Rectangle_40" data-name="Rectangle 40" width="48.61" height="5.22" rx="1.07" transform="translate(135.05 226.11)" fill="#8435a5"/>
        <rect id="Rectangle_41" data-name="Rectangle 41" width="48.61" height="5.22" rx="1.07" transform="translate(135.05 226.11)" opacity="0.2"/>
        <rect id="Rectangle_42" data-name="Rectangle 42" width="1.87" height="5.22" rx="0.21" transform="translate(140.3 226.11)" fill="#8435a5" opacity="0.5"/>
        <rect id="Rectangle_43" data-name="Rectangle 43" width="1.84" height="5.22" rx="0.21" transform="translate(178.05 226.11)" fill="#8435a5" opacity="0.5"/>
        <path id="Path_103" data-name="Path 103" d="M150.34,218.57c-.77,0-1.4.37-1.4.82v5.89c0,.46.63.83,1.4.83h49.13c.25,0,.46-.12.46-.27v-7c0-.15-.21-.27-.46-.27Z" fill="#8435a5"/>
        <path id="Path_104" data-name="Path 104" d="M177,219.06h22.93v6.55H177a.62.62,0,0,1-.62-.62v-5.31a.62.62,0,0,1,.62-.62Z" fill="#fff" opacity="0.9"/>
        <rect id="Rectangle_44" data-name="Rectangle 44" width="41.32" height="7.54" rx="1.07" transform="translate(134.13 218.57)" fill="#8435a5"/>
        <rect id="Rectangle_45" data-name="Rectangle 45" width="41.32" height="7.54" rx="1.07" transform="translate(134.13 218.57)" opacity="0.1"/>
        <path id="Path_105" data-name="Path 105" d="M259.92,249.4H218.65a.84.84,0,0,0-.84.83h0a.84.84,0,0,0,.84.83h41.27a.83.83,0,0,0,.83-.83h0A.83.83,0,0,0,259.92,249.4Z" fill="#fff"/>
        <path id="Path_106" data-name="Path 106" d="M340.66,247.42h27.12l2.45,3.55H338.21Z" fill="#263238"/>
        <path id="Path_107" data-name="Path 107" d="M382.54,186.83a3.64,3.64,0,1,1-1.066-2.584,3.65,3.65,0,0,1,1.066,2.584Z"/>
        <path id="Path_108" data-name="Path 108" d="M355.12,249.82a1.16,1.16,0,0,1-1.07-1.6l26.13-61.84a1.16,1.16,0,0,1,2.13.9l-26.13,61.83a1.16,1.16,0,0,1-1.06.71Z" fill="#263238"/>
        <path id="Path_109" data-name="Path 109" d="M381.24,188a1.19,1.19,0,0,1-.69-.23L333.1,152.18a1.15,1.15,0,0,1,1.38-1.84l47.46,35.57a1.16,1.16,0,0,1-.7,2.08Z" fill="#263238"/>
        <path id="Path_110" data-name="Path 110" d="M384.89,186.83a3.64,3.64,0,1,1-1.066-2.584,3.65,3.65,0,0,1,1.066,2.584Z" fill="#263238"/>
        <circle id="Ellipse_2" data-name="Ellipse 2" cx="3.64" cy="3.64" r="3.64" transform="translate(330.15 147.62)" fill="#263238"/>
        <path id="Path_111" data-name="Path 111" d="M328.69,167.9a8.16,8.16,0,1,1,0-11.54,8.16,8.16,0,0,1,0,11.54Z" fill="#8435a5"/>
        <path id="Path_112" data-name="Path 112" d="M328.69,167.9a8.16,8.16,0,1,1,0-11.54,8.16,8.16,0,0,1,0,11.54Z" fill="#fff" opacity="0.7"/>
        <path id="Path_113" data-name="Path 113" d="M333.79,151.26a17.47,17.47,0,0,0-24.72,0L333.79,176a17.48,17.48,0,0,0,0-24.74Z" fill="#263238"/>
        <g id="Group_16" data-name="Group 16" opacity="0.2">
          <path id="Path_114" data-name="Path 114" d="M309.06,151.26l-103.82,99.8H311.75l22.04-75.07Z" fill="#8435a5"/>
          <path id="Path_115" data-name="Path 115" d="M309.06,151.26l-103.82,99.8H311.75l22.04-75.07Z" fill="#fff" opacity="0.7"/>
        </g>
      </g>
    </g>
  </g>
</svg>
